<?xml version="1.0" encoding="utf-8" standalone="no"?>
<!DOCTYPE svg PUBLIC "-//W3C//DTD SVG 1.1//EN"
  "http://www.w3.org/Graphics/SVG/1.1/DTD/svg11.dtd">
<!-- Created with matplotlib (http://matplotlib.org/) -->
<svg height="432pt" version="1.1" viewBox="0 0 576 432" width="576pt" xmlns="http://www.w3.org/2000/svg" xmlns:xlink="http://www.w3.org/1999/xlink">
 <defs>
  <style type="text/css">
*{stroke-linecap:butt;stroke-linejoin:round;}
  </style>
 </defs>
 <g id="figure_1">
  <g id="patch_1">
   <path d="M 0 432 
L 576 432 
L 576 0 
L 0 0 
z
" style="fill:#ffffff;"/>
  </g>
  <g id="axes_1">
   <g id="patch_2">
    <path d="M 0 432 
L 576 432 
L 576 0 
L 0 0 
z
" style="fill:#ffffff;"/>
   </g>
   <g id="EllipseCollection_1">
    <defs>
     <path d="M 0 3.19945 
C 0.848504 3.19945 1.66237 2.862335 2.262352 2.262352 
C 2.862335 1.66237 3.19945 0.848504 3.19945 0 
C 3.19945 -0.848504 2.862335 -1.66237 2.262352 -2.262352 
C 1.66237 -2.862335 0.848504 -3.19945 0 -3.19945 
C -0.848504 -3.19945 -1.66237 -2.862335 -2.262352 -2.262352 
C -2.862335 -1.66237 -3.19945 -0.848504 -3.19945 0 
C -3.19945 0.848504 -2.862335 1.66237 -2.262352 2.262352 
C -1.66237 2.862335 -0.848504 3.19945 0 3.19945 
z
" id="C0_0_abbd8b5655"/>
    </defs>
    <g clip-path="url(#p17ac3e0dd5)">
     <use style="fill:#008000;" x="412.778533" xlink:href="#C0_0_abbd8b5655" y="169.927926"/>
    </g>
    <g clip-path="url(#p17ac3e0dd5)">
     <use style="fill:#008000;" x="297.598349" xlink:href="#C0_0_abbd8b5655" y="272.310312"/>
    </g>
    <g clip-path="url(#p17ac3e0dd5)">
     <use style="fill:#008000;" x="169.620366" xlink:href="#C0_0_abbd8b5655" y="157.130128"/>
    </g>
    <g clip-path="url(#p17ac3e0dd5)">
     <use style="fill:#008000;" x="297.598349" xlink:href="#C0_0_abbd8b5655" y="336.299303"/>
    </g>
    <g clip-path="url(#p17ac3e0dd5)">
     <use style="fill:#008000;" x="502.36312" xlink:href="#C0_0_abbd8b5655" y="169.927926"/>
    </g>
    <g clip-path="url(#p17ac3e0dd5)">
     <use style="fill:#008000;" x="233.609358" xlink:href="#C0_0_abbd8b5655" y="157.130128"/>
    </g>
    <g clip-path="url(#p17ac3e0dd5)">
     <use style="fill:#008000;" x="335.991743" xlink:href="#C0_0_abbd8b5655" y="131.534532"/>
    </g>
    <g clip-path="url(#p17ac3e0dd5)">
     <use style="fill:#008000;" x="233.609358" xlink:href="#C0_0_abbd8b5655" y="336.299303"/>
    </g>
   </g>
   <g id="PathCollection_1">
    <path clip-path="url(#p17ac3e0dd5)" d="M 470.368625 175.047046 
L 444.773028 175.047046 
L 444.773028 164.808807 
L 470.368625 164.808807 
L 470.368625 175.047046 
" style="fill:none;stroke:#a52a2a;stroke-width:1.545974;"/>
    <path clip-path="url(#p17ac3e0dd5)" d="M 438.374129 169.927926 
L 444.773028 169.927926 
" style="fill:none;stroke:#a52a2a;stroke-width:1.545974;"/>
    <path clip-path="url(#p17ac3e0dd5)" d="M 476.767524 169.927926 
L 470.368625 169.927926 
" style="fill:none;stroke:#a52a2a;stroke-width:1.545974;"/>
   </g>
   <g id="PathCollection_2">
    <path clip-path="url(#p17ac3e0dd5)" d="M 292.479229 317.102606 
L 292.479229 291.50701 
L 302.717468 291.50701 
L 302.717468 317.102606 
L 292.479229 317.102606 
" style="fill:none;stroke:#a52a2a;stroke-width:1.545974;"/>
    <path clip-path="url(#p17ac3e0dd5)" d="M 297.598349 285.10811 
L 297.598349 291.50701 
" style="fill:none;stroke:#a52a2a;stroke-width:1.545974;"/>
    <path clip-path="url(#p17ac3e0dd5)" d="M 297.598349 323.501505 
L 297.598349 317.102606 
" style="fill:none;stroke:#a52a2a;stroke-width:1.545974;"/>
   </g>
   <g id="PathCollection_3">
    <path clip-path="url(#p17ac3e0dd5)" d="M 367.986239 277.429431 
L 342.390642 277.429431 
L 342.390642 267.191193 
L 367.986239 267.191193 
L 367.986239 277.429431 
" style="fill:none;stroke:#a52a2a;stroke-width:1.545974;"/>
    <path clip-path="url(#p17ac3e0dd5)" d="M 335.991743 272.310312 
L 342.390642 272.310312 
" style="fill:none;stroke:#a52a2a;stroke-width:1.545974;"/>
    <path clip-path="url(#p17ac3e0dd5)" d="M 374.385138 272.310312 
L 367.986239 272.310312 
" style="fill:none;stroke:#a52a2a;stroke-width:1.545974;"/>
   </g>
   <g id="PathCollection_4">
    <defs>
     <path d="M 297.598349 -82.902898 
L 297.598349 -76.503999 
L 303.997248 -76.503999 
L 297.598349 -70.1051 
L 291.19945 -76.503999 
L 297.598349 -76.503999 
" id="m1153a0378e" style="stroke:#a52a2a;stroke-width:1.545974;"/>
    </defs>
    <g clip-path="url(#p17ac3e0dd5)">
     <use style="fill-opacity:0;stroke:#a52a2a;stroke-width:1.545974;" x="0" xlink:href="#m1153a0378e" y="432"/>
    </g>
   </g>
   <g id="PathCollection_5">
    <path clip-path="url(#p17ac3e0dd5)" d="M 214.41266 162.249247 
L 188.817064 162.249247 
L 188.817064 152.011009 
L 214.41266 152.011009 
L 214.41266 162.249247 
" style="fill:none;stroke:#a52a2a;stroke-width:1.545974;"/>
    <path clip-path="url(#p17ac3e0dd5)" d="M 182.418165 157.130128 
L 188.817064 157.130128 
" style="fill:none;stroke:#a52a2a;stroke-width:1.545974;"/>
    <path clip-path="url(#p17ac3e0dd5)" d="M 220.811559 157.130128 
L 214.41266 157.130128 
" style="fill:none;stroke:#a52a2a;stroke-width:1.545974;"/>
   </g>
   <g id="PathCollection_6">
    <path clip-path="url(#p17ac3e0dd5)" d="M 124.828073 152.011009 
L 150.423669 152.011009 
L 150.423669 162.249247 
L 124.828073 162.249247 
L 124.828073 152.011009 
" style="fill:none;stroke:#a52a2a;stroke-width:1.545974;"/>
    <path clip-path="url(#p17ac3e0dd5)" d="M 156.822568 157.130128 
L 150.423669 157.130128 
" style="fill:none;stroke:#a52a2a;stroke-width:1.545974;"/>
    <path clip-path="url(#p17ac3e0dd5)" d="M 118.429173 157.130128 
L 124.828073 157.130128 
" style="fill:none;stroke:#a52a2a;stroke-width:1.545974;"/>
   </g>
   <g id="PathCollection_7">
    <path clip-path="url(#p17ac3e0dd5)" d="M 351.349101 70.1051 
L 351.349101 90.581577 
" style="fill:none;stroke:#a52a2a;stroke-width:3.091948;"/>
    <path clip-path="url(#p17ac3e0dd5)" d="M 359.02778 70.1051 
L 359.02778 90.581577 
" style="fill:none;stroke:#a52a2a;stroke-width:3.091948;"/>
    <path clip-path="url(#p17ac3e0dd5)" d="M 374.385138 80.343339 
L 360.30756 80.343339 
" style="fill:none;stroke:#a52a2a;stroke-width:1.545974;"/>
    <path clip-path="url(#p17ac3e0dd5)" d="M 335.991743 80.343339 
L 350.069321 80.343339 
" style="fill:none;stroke:#a52a2a;stroke-width:1.545974;"/>
   </g>
   <g id="PathCollection_8">
    <path clip-path="url(#p17ac3e0dd5)" d="M 223.371119 269.750753 
L 243.847596 269.750753 
" style="fill:none;stroke:#a52a2a;stroke-width:3.091948;"/>
    <path clip-path="url(#p17ac3e0dd5)" d="M 223.371119 262.072074 
L 243.847596 262.072074 
" style="fill:none;stroke:#a52a2a;stroke-width:3.091948;"/>
    <path clip-path="url(#p17ac3e0dd5)" d="M 233.609358 246.714716 
L 233.609358 260.792294 
" style="fill:none;stroke:#a52a2a;stroke-width:1.545974;"/>
    <path clip-path="url(#p17ac3e0dd5)" d="M 233.609358 285.10811 
L 233.609358 271.030532 
" style="fill:none;stroke:#a52a2a;stroke-width:1.545974;"/>
   </g>
   <g id="PathCollection_9">
    <path clip-path="url(#p17ac3e0dd5)" d="M 492.124882 269.750753 
L 512.601359 269.750753 
" style="fill:none;stroke:#a52a2a;stroke-width:3.091948;"/>
    <path clip-path="url(#p17ac3e0dd5)" d="M 492.124882 262.072074 
L 512.601359 262.072074 
" style="fill:none;stroke:#a52a2a;stroke-width:3.091948;"/>
    <path clip-path="url(#p17ac3e0dd5)" d="M 502.36312 246.714716 
L 502.36312 260.792294 
" style="fill:none;stroke:#a52a2a;stroke-width:1.545974;"/>
    <path clip-path="url(#p17ac3e0dd5)" d="M 502.36312 285.10811 
L 502.36312 271.030532 
" style="fill:none;stroke:#a52a2a;stroke-width:1.545974;"/>
   </g>
   <g id="PathCollection_10">
    <path clip-path="url(#p17ac3e0dd5)" d="M 332.152404 125.135633 
L 335.991743 118.736733 
" style="fill:none;stroke:#a52a2a;stroke-width:1.545974;"/>
    <path clip-path="url(#p17ac3e0dd5)" d="M 335.991743 131.534532 
L 335.991743 118.736733 
" style="fill:none;stroke:#a52a2a;stroke-width:1.545974;"/>
    <path clip-path="url(#p17ac3e0dd5)" d="M 335.991743 118.736733 
L 339.831083 125.135633 
" style="fill:none;stroke:#a52a2a;stroke-width:1.545974;"/>
   </g>
   <g id="PathCollection_11">
    <defs>
     <path d="M 335.991743 -223.678679 
L 335.991743 -217.27978 
L 332.152404 -217.27978 
L 335.991743 -210.880881 
L 339.831083 -217.27978 
L 335.991743 -217.27978 
" id="m3af46b6350" style="stroke:#a52a2a;stroke-width:1.545974;"/>
    </defs>
    <g clip-path="url(#p17ac3e0dd5)">
     <use style="fill-opacity:0;stroke:#a52a2a;stroke-width:1.545974;" x="0" xlink:href="#m3af46b6350" y="432"/>
    </g>
   </g>
   <g id="PathCollection_12">
    <path clip-path="url(#p17ac3e0dd5)" d="M 323.193945 144.33233 
L 374.385138 169.927926 
L 323.193945 195.523523 
L 323.193945 144.33233 
" style="fill:none;stroke:#a52a2a;stroke-width:1.545974;"/>
    <path clip-path="url(#p17ac3e0dd5)" d="M 310.396147 157.130128 
L 323.193945 157.130128 
" style="fill:none;stroke:#a52a2a;stroke-width:1.545974;"/>
    <path clip-path="url(#p17ac3e0dd5)" d="M 335.991743 208.321321 
L 335.991743 189.124624 
" style="fill:none;stroke:#a52a2a;stroke-width:1.545974;"/>
    <path clip-path="url(#p17ac3e0dd5)" d="M 310.396147 182.725725 
L 323.193945 182.725725 
" style="fill:none;stroke:#a52a2a;stroke-width:1.545974;"/>
    <path clip-path="url(#p17ac3e0dd5)" d="M 387.182936 169.927926 
L 374.385138 169.927926 
" style="fill:none;stroke:#a52a2a;stroke-width:1.545974;"/>
    <path clip-path="url(#p17ac3e0dd5)" d="M 348.789542 208.321321 
L 348.789542 182.725725 
" style="fill:none;stroke:#a52a2a;stroke-width:1.545974;"/>
    <path clip-path="url(#p17ac3e0dd5)" d="M 335.991743 131.534532 
L 335.991743 150.731229 
" style="fill:none;stroke:#a52a2a;stroke-width:1.545974;"/>
   </g>
   <g id="PathCollection_13">
    <path clip-path="url(#p17ac3e0dd5)" d="M 80.035779 272.310312 
C 86.82381 272.310312 93.334735 269.613399 98.134599 264.813536 
C 102.934462 260.013672 105.631375 253.502747 105.631375 246.714716 
C 105.631375 239.926684 102.934462 233.415759 98.134599 228.615896 
C 93.334735 223.816033 86.82381 221.119119 80.035779 221.119119 
C 73.247747 221.119119 66.736822 223.816033 61.936959 228.615896 
C 57.137096 233.415759 54.440182 239.926684 54.440182 246.714716 
C 54.440182 253.502747 57.137096 260.013672 61.936959 264.813536 
C 66.736822 269.613399 73.247747 272.310312 80.035779 272.310312 
z
" style="fill:none;stroke:#a52a2a;stroke-width:1.545974;"/>
    <path clip-path="url(#p17ac3e0dd5)" d="M 48.041283 278.709211 
L 48.041283 227.518018 
" style="fill:none;stroke:#a52a2a;stroke-width:1.545974;"/>
    <path clip-path="url(#p17ac3e0dd5)" d="M 41.642384 227.518018 
L 48.041283 214.72022 
L 54.440182 227.518018 
" style="fill:none;stroke:#a52a2a;stroke-width:1.545974;"/>
    <path clip-path="url(#p17ac3e0dd5)" d="M 80.035779 208.321321 
L 80.035779 221.119119 
" style="fill:none;stroke:#a52a2a;stroke-width:1.545974;"/>
    <path clip-path="url(#p17ac3e0dd5)" d="M 80.035779 285.10811 
L 80.035779 272.310312 
" style="fill:none;stroke:#a52a2a;stroke-width:1.545974;"/>
   </g>
   <g id="LineCollection_1">
    <path clip-path="url(#p17ac3e0dd5)" d="M 374.385138 272.310312 
L 412.778533 272.310312 
" style="fill:none;stroke:#008000;stroke-width:1.545974;"/>
    <path clip-path="url(#p17ac3e0dd5)" d="M 412.778533 272.310312 
L 412.778533 169.927926 
" style="fill:none;stroke:#008000;stroke-width:1.545974;"/>
    <path clip-path="url(#p17ac3e0dd5)" d="M 412.778533 169.927926 
L 387.182936 169.927926 
" style="fill:none;stroke:#008000;stroke-width:1.545974;"/>
    <path clip-path="url(#p17ac3e0dd5)" d="M 438.374129 169.927926 
L 412.778533 169.927926 
" style="fill:none;stroke:#008000;stroke-width:1.545974;"/>
    <path clip-path="url(#p17ac3e0dd5)" d="M 335.991743 272.310312 
L 297.598349 272.310312 
" style="fill:none;stroke:#008000;stroke-width:1.545974;"/>
    <path clip-path="url(#p17ac3e0dd5)" d="M 297.598349 272.310312 
L 297.598349 182.725725 
" style="fill:none;stroke:#008000;stroke-width:1.545974;"/>
    <path clip-path="url(#p17ac3e0dd5)" d="M 297.598349 182.725725 
L 310.396147 182.725725 
" style="fill:none;stroke:#008000;stroke-width:1.545974;"/>
    <path clip-path="url(#p17ac3e0dd5)" d="M 297.598349 285.10811 
L 297.598349 272.310312 
" style="fill:none;stroke:#008000;stroke-width:1.545974;"/>
    <path clip-path="url(#p17ac3e0dd5)" d="M 220.811559 157.130128 
L 233.609358 157.130128 
" style="fill:none;stroke:#008000;stroke-width:1.545974;"/>
    <path clip-path="url(#p17ac3e0dd5)" d="M 182.418165 157.130128 
L 169.620366 157.130128 
" style="fill:none;stroke:#008000;stroke-width:1.545974;"/>
    <path clip-path="url(#p17ac3e0dd5)" d="M 534.357616 169.927926 
L 502.36312 169.927926 
" style="fill:none;stroke:#008000;stroke-width:1.545974;"/>
    <path clip-path="url(#p17ac3e0dd5)" d="M 374.385138 80.343339 
L 412.778533 80.343339 
" style="fill:none;stroke:#008000;stroke-width:1.545974;"/>
    <path clip-path="url(#p17ac3e0dd5)" d="M 412.778533 80.343339 
L 412.778533 169.927926 
" style="fill:none;stroke:#008000;stroke-width:1.545974;"/>
    <path clip-path="url(#p17ac3e0dd5)" d="M 169.620366 80.343339 
L 169.620366 157.130128 
" style="fill:none;stroke:#008000;stroke-width:1.545974;"/>
    <path clip-path="url(#p17ac3e0dd5)" d="M 169.620366 157.130128 
L 156.822568 157.130128 
" style="fill:none;stroke:#008000;stroke-width:1.545974;"/>
    <path clip-path="url(#p17ac3e0dd5)" d="M 233.609358 246.714716 
L 233.609358 157.130128 
" style="fill:none;stroke:#008000;stroke-width:1.545974;"/>
    <path clip-path="url(#p17ac3e0dd5)" d="M 233.609358 157.130128 
L 310.396147 157.130128 
" style="fill:none;stroke:#008000;stroke-width:1.545974;"/>
    <path clip-path="url(#p17ac3e0dd5)" d="M 233.609358 285.10811 
L 233.609358 336.299303 
" style="fill:none;stroke:#008000;stroke-width:1.545974;"/>
    <path clip-path="url(#p17ac3e0dd5)" d="M 233.609358 336.299303 
L 297.598349 336.299303 
" style="fill:none;stroke:#008000;stroke-width:1.545974;"/>
    <path clip-path="url(#p17ac3e0dd5)" d="M 297.598349 336.299303 
L 297.598349 323.501505 
" style="fill:none;stroke:#008000;stroke-width:1.545974;"/>
    <path clip-path="url(#p17ac3e0dd5)" d="M 502.36312 246.714716 
L 502.36312 169.927926 
" style="fill:none;stroke:#008000;stroke-width:1.545974;"/>
    <path clip-path="url(#p17ac3e0dd5)" d="M 502.36312 169.927926 
L 476.767524 169.927926 
" style="fill:none;stroke:#008000;stroke-width:1.545974;"/>
    <path clip-path="url(#p17ac3e0dd5)" d="M 502.36312 285.10811 
L 502.36312 336.299303 
" style="fill:none;stroke:#008000;stroke-width:1.545974;"/>
    <path clip-path="url(#p17ac3e0dd5)" d="M 502.36312 336.299303 
L 297.598349 336.299303 
" style="fill:none;stroke:#008000;stroke-width:1.545974;"/>
    <path clip-path="url(#p17ac3e0dd5)" d="M 297.598349 349.097102 
L 297.598349 336.299303 
" style="fill:none;stroke:#008000;stroke-width:1.545974;"/>
    <path clip-path="url(#p17ac3e0dd5)" d="M 169.620366 80.343339 
L 335.991743 80.343339 
" style="fill:none;stroke:#008000;stroke-width:1.545974;"/>
    <path clip-path="url(#p17ac3e0dd5)" d="M 348.789542 208.321321 
L 361.58734 208.321321 
" style="fill:none;stroke:#008000;stroke-width:1.545974;"/>
    <path clip-path="url(#p17ac3e0dd5)" d="M 361.58734 131.534532 
L 335.991743 131.534532 
" style="fill:none;stroke:#008000;stroke-width:1.545974;"/>
    <path clip-path="url(#p17ac3e0dd5)" d="M 361.58734 131.534532 
L 361.58734 208.321321 
" style="fill:none;stroke:#008000;stroke-width:1.545974;"/>
    <path clip-path="url(#p17ac3e0dd5)" d="M 80.035779 157.130128 
L 80.035779 208.321321 
" style="fill:none;stroke:#008000;stroke-width:1.545974;"/>
    <path clip-path="url(#p17ac3e0dd5)" d="M 80.035779 157.130128 
L 118.429173 157.130128 
" style="fill:none;stroke:#008000;stroke-width:1.545974;"/>
    <path clip-path="url(#p17ac3e0dd5)" d="M 80.035779 285.10811 
L 80.035779 336.299303 
" style="fill:none;stroke:#008000;stroke-width:1.545974;"/>
    <path clip-path="url(#p17ac3e0dd5)" d="M 80.035779 336.299303 
L 233.609358 336.299303 
" style="fill:none;stroke:#008000;stroke-width:1.545974;"/>
   </g>
   <g id="LineCollection_2"/>
   <g id="LineCollection_3"/>
   <g id="patch_3">
    <path d="M 0 432 
L 0 -0 
" style="fill:none;stroke:#000000;stroke-linecap:square;stroke-linejoin:miter;stroke-width:0.8;"/>
   </g>
   <g id="patch_4">
    <path d="M 576 432 
L 576 -0 
" style="fill:none;stroke:#000000;stroke-linecap:square;stroke-linejoin:miter;stroke-width:0.8;"/>
   </g>
   <g id="patch_5">
    <path d="M -0 432 
L 576 432 
" style="fill:none;stroke:#000000;stroke-linecap:square;stroke-linejoin:miter;stroke-width:0.8;"/>
   </g>
   <g id="patch_6">
    <path d="M -0 0 
L 576 0 
" style="fill:none;stroke:#000000;stroke-linecap:square;stroke-linejoin:miter;stroke-width:0.8;"/>
   </g>
   <g id="text_1">
    <g clip-path="url(#p17ac3e0dd5)">
     <!-- R105 -->
     <defs>
      <path d="M 44.390625 34.1875 
Q 47.5625 33.109375 50.5625 29.59375 
Q 53.5625 26.078125 56.59375 19.921875 
L 66.609375 0 
L 56 0 
L 46.6875 18.703125 
Q 43.0625 26.03125 39.671875 28.421875 
Q 36.28125 30.8125 30.421875 30.8125 
L 19.671875 30.8125 
L 19.671875 0 
L 9.8125 0 
L 9.8125 72.90625 
L 32.078125 72.90625 
Q 44.578125 72.90625 50.734375 67.671875 
Q 56.890625 62.453125 56.890625 51.90625 
Q 56.890625 45.015625 53.6875 40.46875 
Q 50.484375 35.9375 44.390625 34.1875 
z
M 19.671875 64.796875 
L 19.671875 38.921875 
L 32.078125 38.921875 
Q 39.203125 38.921875 42.84375 42.21875 
Q 46.484375 45.515625 46.484375 51.90625 
Q 46.484375 58.296875 42.84375 61.546875 
Q 39.203125 64.796875 32.078125 64.796875 
z
" id="DejaVuSans-52"/>
      <path d="M 12.40625 8.296875 
L 28.515625 8.296875 
L 28.515625 63.921875 
L 10.984375 60.40625 
L 10.984375 69.390625 
L 28.421875 72.90625 
L 38.28125 72.90625 
L 38.28125 8.296875 
L 54.390625 8.296875 
L 54.390625 0 
L 12.40625 0 
z
" id="DejaVuSans-31"/>
      <path d="M 31.78125 66.40625 
Q 24.171875 66.40625 20.328125 58.90625 
Q 16.5 51.421875 16.5 36.375 
Q 16.5 21.390625 20.328125 13.890625 
Q 24.171875 6.390625 31.78125 6.390625 
Q 39.453125 6.390625 43.28125 13.890625 
Q 47.125 21.390625 47.125 36.375 
Q 47.125 51.421875 43.28125 58.90625 
Q 39.453125 66.40625 31.78125 66.40625 
z
M 31.78125 74.21875 
Q 44.046875 74.21875 50.515625 64.515625 
Q 56.984375 54.828125 56.984375 36.375 
Q 56.984375 17.96875 50.515625 8.265625 
Q 44.046875 -1.421875 31.78125 -1.421875 
Q 19.53125 -1.421875 13.0625 8.265625 
Q 6.59375 17.96875 6.59375 36.375 
Q 6.59375 54.828125 13.0625 64.515625 
Q 19.53125 74.21875 31.78125 74.21875 
z
" id="DejaVuSans-30"/>
      <path d="M 10.796875 72.90625 
L 49.515625 72.90625 
L 49.515625 64.59375 
L 19.828125 64.59375 
L 19.828125 46.734375 
Q 21.96875 47.46875 24.109375 47.828125 
Q 26.265625 48.1875 28.421875 48.1875 
Q 40.625 48.1875 47.75 41.5 
Q 54.890625 34.8125 54.890625 23.390625 
Q 54.890625 11.625 47.5625 5.09375 
Q 40.234375 -1.421875 26.90625 -1.421875 
Q 22.3125 -1.421875 17.546875 -0.640625 
Q 12.796875 0.140625 7.71875 1.703125 
L 7.71875 11.625 
Q 12.109375 9.234375 16.796875 8.0625 
Q 21.484375 6.890625 26.703125 6.890625 
Q 35.15625 6.890625 40.078125 11.328125 
Q 45.015625 15.765625 45.015625 23.390625 
Q 45.015625 31 40.078125 35.4375 
Q 35.15625 39.890625 26.703125 39.890625 
Q 22.75 39.890625 18.8125 39.015625 
Q 14.890625 38.140625 10.796875 36.28125 
z
" id="DejaVuSans-35"/>
     </defs>
     <g style="fill:#a52a2a;" transform="translate(447.508106 145.569445)scale(0.077299 -0.077299)">
      <use xlink:href="#DejaVuSans-52"/>
      <use x="69.482422" xlink:href="#DejaVuSans-31"/>
      <use x="133.105469" xlink:href="#DejaVuSans-30"/>
      <use x="196.728516" xlink:href="#DejaVuSans-35"/>
     </g>
    </g>
   </g>
   <g id="text_2">
    <g clip-path="url(#p17ac3e0dd5)">
     <!-- 10k -->
     <defs>
      <path d="M 9.078125 75.984375 
L 18.109375 75.984375 
L 18.109375 31.109375 
L 44.921875 54.6875 
L 56.390625 54.6875 
L 27.390625 29.109375 
L 57.625 0 
L 45.90625 0 
L 18.109375 26.703125 
L 18.109375 0 
L 9.078125 0 
z
" id="DejaVuSans-6b"/>
     </defs>
     <g style="fill:#a52a2a;" transform="translate(450.414658 157.215441)scale(0.077299 -0.077299)">
      <use xlink:href="#DejaVuSans-31"/>
      <use x="63.623047" xlink:href="#DejaVuSans-30"/>
      <use x="127.246094" xlink:href="#DejaVuSans-6b"/>
     </g>
    </g>
   </g>
   <g id="text_3">
    <g clip-path="url(#p17ac3e0dd5)">
     <!-- R103 -->
     <defs>
      <path d="M 40.578125 39.3125 
Q 47.65625 37.796875 51.625 33 
Q 55.609375 28.21875 55.609375 21.1875 
Q 55.609375 10.40625 48.1875 4.484375 
Q 40.765625 -1.421875 27.09375 -1.421875 
Q 22.515625 -1.421875 17.65625 -0.515625 
Q 12.796875 0.390625 7.625 2.203125 
L 7.625 11.71875 
Q 11.71875 9.328125 16.59375 8.109375 
Q 21.484375 6.890625 26.8125 6.890625 
Q 36.078125 6.890625 40.9375 10.546875 
Q 45.796875 14.203125 45.796875 21.1875 
Q 45.796875 27.640625 41.28125 31.265625 
Q 36.765625 34.90625 28.71875 34.90625 
L 20.21875 34.90625 
L 20.21875 43.015625 
L 29.109375 43.015625 
Q 36.375 43.015625 40.234375 45.921875 
Q 44.09375 48.828125 44.09375 54.296875 
Q 44.09375 59.90625 40.109375 62.90625 
Q 36.140625 65.921875 28.71875 65.921875 
Q 24.65625 65.921875 20.015625 65.03125 
Q 15.375 64.15625 9.8125 62.3125 
L 9.8125 71.09375 
Q 15.4375 72.65625 20.34375 73.4375 
Q 25.25 74.21875 29.59375 74.21875 
Q 40.828125 74.21875 47.359375 69.109375 
Q 53.90625 64.015625 53.90625 55.328125 
Q 53.90625 49.265625 50.4375 45.09375 
Q 46.96875 40.921875 40.578125 39.3125 
z
" id="DejaVuSans-33"/>
     </defs>
     <g style="fill:#a52a2a;" transform="translate(306.556807 300.550782)scale(0.077299 -0.077299)">
      <use xlink:href="#DejaVuSans-52"/>
      <use x="69.482422" xlink:href="#DejaVuSans-31"/>
      <use x="133.105469" xlink:href="#DejaVuSans-30"/>
      <use x="196.728516" xlink:href="#DejaVuSans-33"/>
     </g>
    </g>
   </g>
   <g id="text_4">
    <g clip-path="url(#p17ac3e0dd5)">
     <!-- 1k -->
     <g style="fill:#a52a2a;" transform="translate(306.556807 312.196778)scale(0.077299 -0.077299)">
      <use xlink:href="#DejaVuSans-31"/>
      <use x="63.623047" xlink:href="#DejaVuSans-6b"/>
     </g>
    </g>
   </g>
   <g id="text_5">
    <g clip-path="url(#p17ac3e0dd5)">
     <!-- R104 -->
     <defs>
      <path d="M 37.796875 64.3125 
L 12.890625 25.390625 
L 37.796875 25.390625 
z
M 35.203125 72.90625 
L 47.609375 72.90625 
L 47.609375 25.390625 
L 58.015625 25.390625 
L 58.015625 17.1875 
L 47.609375 17.1875 
L 47.609375 0 
L 37.796875 0 
L 37.796875 17.1875 
L 4.890625 17.1875 
L 4.890625 26.703125 
z
" id="DejaVuSans-34"/>
     </defs>
     <g style="fill:#a52a2a;" transform="translate(345.12572 247.951831)scale(0.077299 -0.077299)">
      <use xlink:href="#DejaVuSans-52"/>
      <use x="69.482422" xlink:href="#DejaVuSans-31"/>
      <use x="133.105469" xlink:href="#DejaVuSans-30"/>
      <use x="196.728516" xlink:href="#DejaVuSans-34"/>
     </g>
    </g>
   </g>
   <g id="text_6">
    <g clip-path="url(#p17ac3e0dd5)">
     <!-- 1k -->
     <g style="fill:#a52a2a;" transform="translate(350.491337 259.597827)scale(0.077299 -0.077299)">
      <use xlink:href="#DejaVuSans-31"/>
      <use x="63.623047" xlink:href="#DejaVuSans-6b"/>
     </g>
    </g>
   </g>
   <g id="text_7">
    <g clip-path="url(#p17ac3e0dd5)">
     <!-- GND -->
     <defs>
      <path d="M 59.515625 10.40625 
L 59.515625 29.984375 
L 43.40625 29.984375 
L 43.40625 38.09375 
L 69.28125 38.09375 
L 69.28125 6.78125 
Q 63.578125 2.734375 56.6875 0.65625 
Q 49.8125 -1.421875 42 -1.421875 
Q 24.90625 -1.421875 15.25 8.5625 
Q 5.609375 18.5625 5.609375 36.375 
Q 5.609375 54.25 15.25 64.234375 
Q 24.90625 74.21875 42 74.21875 
Q 49.125 74.21875 55.546875 72.453125 
Q 61.96875 70.703125 67.390625 67.28125 
L 67.390625 56.78125 
Q 61.921875 61.421875 55.765625 63.765625 
Q 49.609375 66.109375 42.828125 66.109375 
Q 29.4375 66.109375 22.71875 58.640625 
Q 16.015625 51.171875 16.015625 36.375 
Q 16.015625 21.625 22.71875 14.15625 
Q 29.4375 6.6875 42.828125 6.6875 
Q 48.046875 6.6875 52.140625 7.59375 
Q 56.25 8.5 59.515625 10.40625 
z
" id="DejaVuSans-47"/>
      <path d="M 9.8125 72.90625 
L 23.09375 72.90625 
L 55.421875 11.921875 
L 55.421875 72.90625 
L 64.984375 72.90625 
L 64.984375 0 
L 51.703125 0 
L 19.390625 60.984375 
L 19.390625 0 
L 9.8125 0 
z
" id="DejaVuSans-4e"/>
      <path d="M 19.671875 64.796875 
L 19.671875 8.109375 
L 31.59375 8.109375 
Q 46.6875 8.109375 53.6875 14.9375 
Q 60.6875 21.78125 60.6875 36.53125 
Q 60.6875 51.171875 53.6875 57.984375 
Q 46.6875 64.796875 31.59375 64.796875 
z
M 9.8125 72.90625 
L 30.078125 72.90625 
Q 51.265625 72.90625 61.171875 64.09375 
Q 71.09375 55.28125 71.09375 36.53125 
Q 71.09375 17.671875 61.125 8.828125 
Q 51.171875 0 30.078125 0 
L 9.8125 0 
z
" id="DejaVuSans-44"/>
     </defs>
     <g style="fill:#a52a2a;" transform="translate(289.376063 373.370254)scale(0.077299 -0.077299)">
      <use xlink:href="#DejaVuSans-47"/>
      <use x="77.490234" xlink:href="#DejaVuSans-4e"/>
      <use x="152.294922" xlink:href="#DejaVuSans-44"/>
     </g>
    </g>
   </g>
   <g id="text_8">
    <g clip-path="url(#p17ac3e0dd5)">
     <!-- R102 -->
     <defs>
      <path d="M 19.1875 8.296875 
L 53.609375 8.296875 
L 53.609375 0 
L 7.328125 0 
L 7.328125 8.296875 
Q 12.9375 14.109375 22.625 23.890625 
Q 32.328125 33.6875 34.8125 36.53125 
Q 39.546875 41.84375 41.421875 45.53125 
Q 43.3125 49.21875 43.3125 52.78125 
Q 43.3125 58.59375 39.234375 62.25 
Q 35.15625 65.921875 28.609375 65.921875 
Q 23.96875 65.921875 18.8125 64.3125 
Q 13.671875 62.703125 7.8125 59.421875 
L 7.8125 69.390625 
Q 13.765625 71.78125 18.9375 73 
Q 24.125 74.21875 28.421875 74.21875 
Q 39.75 74.21875 46.484375 68.546875 
Q 53.21875 62.890625 53.21875 53.421875 
Q 53.21875 48.921875 51.53125 44.890625 
Q 49.859375 40.875 45.40625 35.40625 
Q 44.1875 33.984375 37.640625 27.21875 
Q 31.109375 20.453125 19.1875 8.296875 
z
" id="DejaVuSans-32"/>
     </defs>
     <g style="fill:#a52a2a;" transform="translate(191.552141 132.771647)scale(0.077299 -0.077299)">
      <use xlink:href="#DejaVuSans-52"/>
      <use x="69.482422" xlink:href="#DejaVuSans-31"/>
      <use x="133.105469" xlink:href="#DejaVuSans-30"/>
      <use x="196.728516" xlink:href="#DejaVuSans-32"/>
     </g>
    </g>
   </g>
   <g id="text_9">
    <g clip-path="url(#p17ac3e0dd5)">
     <!-- 10k -->
     <g style="fill:#a52a2a;" transform="translate(194.458693 144.417643)scale(0.077299 -0.077299)">
      <use xlink:href="#DejaVuSans-31"/>
      <use x="63.623047" xlink:href="#DejaVuSans-30"/>
      <use x="127.246094" xlink:href="#DejaVuSans-6b"/>
     </g>
    </g>
   </g>
   <g id="text_10">
    <g clip-path="url(#p17ac3e0dd5)">
     <!-- R101 -->
     <g style="fill:#a52a2a;" transform="translate(127.56315 132.771647)scale(0.077299 -0.077299)">
      <use xlink:href="#DejaVuSans-52"/>
      <use x="69.482422" xlink:href="#DejaVuSans-31"/>
      <use x="133.105469" xlink:href="#DejaVuSans-30"/>
      <use x="196.728516" xlink:href="#DejaVuSans-31"/>
     </g>
    </g>
   </g>
   <g id="text_11">
    <g clip-path="url(#p17ac3e0dd5)">
     <!-- 10k -->
     <g style="fill:#a52a2a;" transform="translate(130.469702 144.417643)scale(0.077299 -0.077299)">
      <use xlink:href="#DejaVuSans-31"/>
      <use x="63.623047" xlink:href="#DejaVuSans-30"/>
      <use x="127.246094" xlink:href="#DejaVuSans-6b"/>
     </g>
    </g>
   </g>
   <g id="text_12">
    <g clip-path="url(#p17ac3e0dd5)">
     <!-- C102 -->
     <defs>
      <path d="M 64.40625 67.28125 
L 64.40625 56.890625 
Q 59.421875 61.53125 53.78125 63.8125 
Q 48.140625 66.109375 41.796875 66.109375 
Q 29.296875 66.109375 22.65625 58.46875 
Q 16.015625 50.828125 16.015625 36.375 
Q 16.015625 21.96875 22.65625 14.328125 
Q 29.296875 6.6875 41.796875 6.6875 
Q 48.140625 6.6875 53.78125 8.984375 
Q 59.421875 11.28125 64.40625 15.921875 
L 64.40625 5.609375 
Q 59.234375 2.09375 53.4375 0.328125 
Q 47.65625 -1.421875 41.21875 -1.421875 
Q 24.65625 -1.421875 15.125 8.703125 
Q 5.609375 18.84375 5.609375 36.375 
Q 5.609375 53.953125 15.125 64.078125 
Q 24.65625 74.21875 41.21875 74.21875 
Q 47.75 74.21875 53.53125 72.484375 
Q 59.328125 70.75 64.40625 67.28125 
z
" id="DejaVuSans-43"/>
     </defs>
     <g style="fill:#a52a2a;" transform="translate(345.112434 50.225848)scale(0.077299 -0.077299)">
      <use xlink:href="#DejaVuSans-43"/>
      <use x="69.824219" xlink:href="#DejaVuSans-31"/>
      <use x="133.447266" xlink:href="#DejaVuSans-30"/>
      <use x="197.070312" xlink:href="#DejaVuSans-32"/>
     </g>
    </g>
   </g>
   <g id="text_13">
    <g clip-path="url(#p17ac3e0dd5)">
     <!-- 352n -->
     <defs>
      <path d="M 54.890625 33.015625 
L 54.890625 0 
L 45.90625 0 
L 45.90625 32.71875 
Q 45.90625 40.484375 42.875 44.328125 
Q 39.84375 48.1875 33.796875 48.1875 
Q 26.515625 48.1875 22.3125 43.546875 
Q 18.109375 38.921875 18.109375 30.90625 
L 18.109375 0 
L 9.078125 0 
L 9.078125 54.6875 
L 18.109375 54.6875 
L 18.109375 46.1875 
Q 21.34375 51.125 25.703125 53.5625 
Q 30.078125 56 35.796875 56 
Q 45.21875 56 50.046875 50.171875 
Q 54.890625 44.34375 54.890625 33.015625 
z
" id="DejaVuSans-6e"/>
     </defs>
     <g style="fill:#a52a2a;" transform="translate(345.361843 61.871845)scale(0.077299 -0.077299)">
      <use xlink:href="#DejaVuSans-33"/>
      <use x="63.623047" xlink:href="#DejaVuSans-35"/>
      <use x="127.246094" xlink:href="#DejaVuSans-32"/>
      <use x="190.869141" xlink:href="#DejaVuSans-6e"/>
     </g>
    </g>
   </g>
   <g id="text_14">
    <g clip-path="url(#p17ac3e0dd5)">
     <!-- C101 -->
     <g style="fill:#a52a2a;" transform="translate(248.326825 262.157387)scale(0.077299 -0.077299)">
      <use xlink:href="#DejaVuSans-43"/>
      <use x="69.824219" xlink:href="#DejaVuSans-31"/>
      <use x="133.447266" xlink:href="#DejaVuSans-30"/>
      <use x="197.070312" xlink:href="#DejaVuSans-31"/>
     </g>
    </g>
   </g>
   <g id="text_15">
    <g clip-path="url(#p17ac3e0dd5)">
     <!-- 352n -->
     <g style="fill:#a52a2a;" transform="translate(248.326825 273.803383)scale(0.077299 -0.077299)">
      <use xlink:href="#DejaVuSans-33"/>
      <use x="63.623047" xlink:href="#DejaVuSans-35"/>
      <use x="127.246094" xlink:href="#DejaVuSans-32"/>
      <use x="190.869141" xlink:href="#DejaVuSans-6e"/>
     </g>
    </g>
   </g>
   <g id="text_16">
    <g clip-path="url(#p17ac3e0dd5)">
     <!-- C103 -->
     <g style="fill:#a52a2a;" transform="translate(517.080588 262.157387)scale(0.077299 -0.077299)">
      <use xlink:href="#DejaVuSans-43"/>
      <use x="69.824219" xlink:href="#DejaVuSans-31"/>
      <use x="133.447266" xlink:href="#DejaVuSans-30"/>
      <use x="197.070312" xlink:href="#DejaVuSans-33"/>
     </g>
    </g>
   </g>
   <g id="text_17">
    <g clip-path="url(#p17ac3e0dd5)">
     <!-- 352n -->
     <g style="fill:#a52a2a;" transform="translate(517.080588 273.803383)scale(0.077299 -0.077299)">
      <use xlink:href="#DejaVuSans-33"/>
      <use x="63.623047" xlink:href="#DejaVuSans-35"/>
      <use x="127.246094" xlink:href="#DejaVuSans-32"/>
      <use x="190.869141" xlink:href="#DejaVuSans-6e"/>
     </g>
    </g>
   </g>
   <g id="text_18">
    <g clip-path="url(#p17ac3e0dd5)">
     <!-- +2V5 -->
     <defs>
      <path d="M 46 62.703125 
L 46 35.5 
L 73.1875 35.5 
L 73.1875 27.203125 
L 46 27.203125 
L 46 0 
L 37.796875 0 
L 37.796875 27.203125 
L 10.59375 27.203125 
L 10.59375 35.5 
L 37.796875 35.5 
L 37.796875 62.703125 
z
" id="DejaVuSans-2b"/>
      <path d="M 28.609375 0 
L 0.78125 72.90625 
L 11.078125 72.90625 
L 34.1875 11.53125 
L 57.328125 72.90625 
L 67.578125 72.90625 
L 39.796875 0 
z
" id="DejaVuSans-56"/>
     </defs>
     <g style="fill:#a52a2a;" transform="translate(327.110731 111.527302)scale(0.077299 -0.077299)">
      <use xlink:href="#DejaVuSans-2b"/>
      <use x="83.789062" xlink:href="#DejaVuSans-32"/>
      <use x="147.412109" xlink:href="#DejaVuSans-56"/>
      <use x="215.820312" xlink:href="#DejaVuSans-35"/>
     </g>
    </g>
   </g>
   <g id="text_19">
    <g clip-path="url(#p17ac3e0dd5)">
     <!-- -2V5 -->
     <defs>
      <path d="M 4.890625 31.390625 
L 31.203125 31.390625 
L 31.203125 23.390625 
L 4.890625 23.390625 
z
" id="DejaVuSans-2d"/>
     </defs>
     <g style="fill:#a52a2a;" transform="translate(325.115691 232.594473)scale(0.077299 -0.077299)">
      <use xlink:href="#DejaVuSans-2d"/>
      <use x="36.083984" xlink:href="#DejaVuSans-32"/>
      <use x="99.707031" xlink:href="#DejaVuSans-56"/>
      <use x="168.115234" xlink:href="#DejaVuSans-35"/>
     </g>
    </g>
   </g>
   <g id="text_20">
    <g clip-path="url(#p17ac3e0dd5)">
     <!-- 1 -->
     <g style="fill:#a52a2a;" transform="translate(315.076366 156.06364)scale(0.077299 -0.077299)">
      <use xlink:href="#DejaVuSans-31"/>
     </g>
    </g>
   </g>
   <g id="text_21">
    <g clip-path="url(#p17ac3e0dd5)">
     <!-- + -->
     <g style="fill:#008000;" transform="translate(324.473725 159.263089)scale(0.077299 -0.077299)">
      <use xlink:href="#DejaVuSans-2b"/>
     </g>
    </g>
   </g>
   <g id="text_22">
    <g clip-path="url(#p17ac3e0dd5)">
     <!-- 2 -->
     <g style="fill:#a52a2a;" transform="translate(334.925255 203.641102)rotate(-90)scale(0.077299 -0.077299)">
      <use xlink:href="#DejaVuSans-32"/>
     </g>
    </g>
   </g>
   <g id="text_23">
    <g clip-path="url(#p17ac3e0dd5)">
     <!-- V- -->
     <g style="fill:#008000;" transform="translate(338.124704 187.844844)rotate(-90)scale(0.077299 -0.077299)">
      <use xlink:href="#DejaVuSans-56"/>
      <use x="68.330078" xlink:href="#DejaVuSans-2d"/>
     </g>
    </g>
   </g>
   <g id="text_24">
    <g clip-path="url(#p17ac3e0dd5)">
     <!-- 3 -->
     <g style="fill:#a52a2a;" transform="translate(315.076366 181.659236)scale(0.077299 -0.077299)">
      <use xlink:href="#DejaVuSans-33"/>
     </g>
    </g>
   </g>
   <g id="text_25">
    <g clip-path="url(#p17ac3e0dd5)">
     <!-- - -->
     <g style="fill:#008000;" transform="translate(324.473725 184.858686)scale(0.077299 -0.077299)">
      <use xlink:href="#DejaVuSans-2d"/>
     </g>
    </g>
   </g>
   <g id="text_26">
    <g clip-path="url(#p17ac3e0dd5)">
     <!-- 4 -->
     <g style="fill:#a52a2a;" transform="translate(377.584588 168.861438)scale(0.077299 -0.077299)">
      <use xlink:href="#DejaVuSans-34"/>
     </g>
    </g>
   </g>
   <g id="text_27">
    <g clip-path="url(#p17ac3e0dd5)">
     <!-- 5 -->
     <g style="fill:#a52a2a;" transform="translate(347.723053 203.641102)rotate(-90)scale(0.077299 -0.077299)">
      <use xlink:href="#DejaVuSans-35"/>
     </g>
    </g>
   </g>
   <g id="text_28">
    <g clip-path="url(#p17ac3e0dd5)">
     <!-- ~SD -->
     <defs>
      <path d="M 73.1875 39.890625 
L 73.1875 31.203125 
Q 68.0625 27.34375 63.6875 25.6875 
Q 59.328125 24.03125 54.59375 24.03125 
Q 49.21875 24.03125 42.09375 26.90625 
Q 41.546875 27.09375 41.3125 27.203125 
Q 40.96875 27.34375 40.234375 27.59375 
Q 32.671875 30.609375 28.078125 30.609375 
Q 23.78125 30.609375 19.578125 28.734375 
Q 15.375 26.859375 10.59375 22.796875 
L 10.59375 31.5 
Q 15.71875 35.359375 20.09375 37.03125 
Q 24.46875 38.71875 29.203125 38.71875 
Q 34.578125 38.71875 41.75 35.796875 
Q 42.234375 35.59375 42.484375 35.5 
Q 42.875 35.359375 43.5625 35.109375 
Q 51.125 32.078125 55.71875 32.078125 
Q 59.90625 32.078125 64.03125 33.9375 
Q 68.171875 35.796875 73.1875 39.890625 
z
" id="DejaVuSans-7e"/>
      <path d="M 53.515625 70.515625 
L 53.515625 60.890625 
Q 47.90625 63.578125 42.921875 64.890625 
Q 37.9375 66.21875 33.296875 66.21875 
Q 25.25 66.21875 20.875 63.09375 
Q 16.5 59.96875 16.5 54.203125 
Q 16.5 49.359375 19.40625 46.890625 
Q 22.3125 44.4375 30.421875 42.921875 
L 36.375 41.703125 
Q 47.40625 39.59375 52.65625 34.296875 
Q 57.90625 29 57.90625 20.125 
Q 57.90625 9.515625 50.796875 4.046875 
Q 43.703125 -1.421875 29.984375 -1.421875 
Q 24.8125 -1.421875 18.96875 -0.25 
Q 13.140625 0.921875 6.890625 3.21875 
L 6.890625 13.375 
Q 12.890625 10.015625 18.65625 8.296875 
Q 24.421875 6.59375 29.984375 6.59375 
Q 38.421875 6.59375 43.015625 9.90625 
Q 47.609375 13.234375 47.609375 19.390625 
Q 47.609375 24.75 44.3125 27.78125 
Q 41.015625 30.8125 33.5 32.328125 
L 27.484375 33.5 
Q 16.453125 35.6875 11.515625 40.375 
Q 6.59375 45.0625 6.59375 53.421875 
Q 6.59375 63.09375 13.40625 68.65625 
Q 20.21875 74.21875 32.171875 74.21875 
Q 37.3125 74.21875 42.625 73.28125 
Q 47.953125 72.359375 53.515625 70.515625 
z
" id="DejaVuSans-53"/>
     </defs>
     <g style="fill:#008000;" transform="translate(350.922503 181.445945)rotate(-90)scale(0.077299 -0.077299)">
      <use xlink:href="#DejaVuSans-7e"/>
      <use x="83.789062" xlink:href="#DejaVuSans-53"/>
      <use x="147.265625" xlink:href="#DejaVuSans-44"/>
     </g>
    </g>
   </g>
   <g id="text_29">
    <g clip-path="url(#p17ac3e0dd5)">
     <!-- 6 -->
     <defs>
      <path d="M 33.015625 40.375 
Q 26.375 40.375 22.484375 35.828125 
Q 18.609375 31.296875 18.609375 23.390625 
Q 18.609375 15.53125 22.484375 10.953125 
Q 26.375 6.390625 33.015625 6.390625 
Q 39.65625 6.390625 43.53125 10.953125 
Q 47.40625 15.53125 47.40625 23.390625 
Q 47.40625 31.296875 43.53125 35.828125 
Q 39.65625 40.375 33.015625 40.375 
z
M 52.59375 71.296875 
L 52.59375 62.3125 
Q 48.875 64.0625 45.09375 64.984375 
Q 41.3125 65.921875 37.59375 65.921875 
Q 27.828125 65.921875 22.671875 59.328125 
Q 17.53125 52.734375 16.796875 39.40625 
Q 19.671875 43.65625 24.015625 45.921875 
Q 28.375 48.1875 33.59375 48.1875 
Q 44.578125 48.1875 50.953125 41.515625 
Q 57.328125 34.859375 57.328125 23.390625 
Q 57.328125 12.15625 50.6875 5.359375 
Q 44.046875 -1.421875 33.015625 -1.421875 
Q 20.359375 -1.421875 13.671875 8.265625 
Q 6.984375 17.96875 6.984375 36.375 
Q 6.984375 53.65625 15.1875 63.9375 
Q 23.390625 74.21875 37.203125 74.21875 
Q 40.921875 74.21875 44.703125 73.484375 
Q 48.484375 72.75 52.59375 71.296875 
z
" id="DejaVuSans-36"/>
     </defs>
     <g style="fill:#a52a2a;" transform="translate(334.925255 141.13288)rotate(-90)scale(0.077299 -0.077299)">
      <use xlink:href="#DejaVuSans-36"/>
     </g>
    </g>
   </g>
   <g id="text_30">
    <g clip-path="url(#p17ac3e0dd5)">
     <!-- V+ -->
     <g style="fill:#008000;" transform="translate(338.124704 163.776113)rotate(-90)scale(0.077299 -0.077299)">
      <use xlink:href="#DejaVuSans-56"/>
      <use x="68.408203" xlink:href="#DejaVuSans-2b"/>
     </g>
    </g>
   </g>
   <g id="text_31">
    <g clip-path="url(#p17ac3e0dd5)">
     <!-- U101 -->
     <defs>
      <path d="M 8.6875 72.90625 
L 18.609375 72.90625 
L 18.609375 28.609375 
Q 18.609375 16.890625 22.84375 11.734375 
Q 27.09375 6.59375 36.625 6.59375 
Q 46.09375 6.59375 50.34375 11.734375 
Q 54.59375 16.890625 54.59375 28.609375 
L 54.59375 72.90625 
L 64.5 72.90625 
L 64.5 27.390625 
Q 64.5 13.140625 57.4375 5.859375 
Q 50.390625 -1.421875 36.625 -1.421875 
Q 22.796875 -1.421875 15.734375 5.859375 
Q 8.6875 13.140625 8.6875 27.390625 
z
" id="DejaVuSans-55"/>
     </defs>
     <g style="fill:#a52a2a;" transform="translate(374.385138 127.268594)scale(0.077299 -0.077299)">
      <use xlink:href="#DejaVuSans-55"/>
      <use x="73.193359" xlink:href="#DejaVuSans-31"/>
      <use x="136.816406" xlink:href="#DejaVuSans-30"/>
      <use x="200.439453" xlink:href="#DejaVuSans-31"/>
     </g>
    </g>
   </g>
   <g id="text_32">
    <g clip-path="url(#p17ac3e0dd5)">
     <!-- LMV981 -->
     <defs>
      <path d="M 9.8125 72.90625 
L 19.671875 72.90625 
L 19.671875 8.296875 
L 55.171875 8.296875 
L 55.171875 0 
L 9.8125 0 
z
" id="DejaVuSans-4c"/>
      <path d="M 9.8125 72.90625 
L 24.515625 72.90625 
L 43.109375 23.296875 
L 61.8125 72.90625 
L 76.515625 72.90625 
L 76.515625 0 
L 66.890625 0 
L 66.890625 64.015625 
L 48.09375 14.015625 
L 38.1875 14.015625 
L 19.390625 64.015625 
L 19.390625 0 
L 9.8125 0 
z
" id="DejaVuSans-4d"/>
      <path d="M 10.984375 1.515625 
L 10.984375 10.5 
Q 14.703125 8.734375 18.5 7.8125 
Q 22.3125 6.890625 25.984375 6.890625 
Q 35.75 6.890625 40.890625 13.453125 
Q 46.046875 20.015625 46.78125 33.40625 
Q 43.953125 29.203125 39.59375 26.953125 
Q 35.25 24.703125 29.984375 24.703125 
Q 19.046875 24.703125 12.671875 31.3125 
Q 6.296875 37.9375 6.296875 49.421875 
Q 6.296875 60.640625 12.9375 67.421875 
Q 19.578125 74.21875 30.609375 74.21875 
Q 43.265625 74.21875 49.921875 64.515625 
Q 56.59375 54.828125 56.59375 36.375 
Q 56.59375 19.140625 48.40625 8.859375 
Q 40.234375 -1.421875 26.421875 -1.421875 
Q 22.703125 -1.421875 18.890625 -0.6875 
Q 15.09375 0.046875 10.984375 1.515625 
z
M 30.609375 32.421875 
Q 37.25 32.421875 41.125 36.953125 
Q 45.015625 41.5 45.015625 49.421875 
Q 45.015625 57.28125 41.125 61.84375 
Q 37.25 66.40625 30.609375 66.40625 
Q 23.96875 66.40625 20.09375 61.84375 
Q 16.21875 57.28125 16.21875 49.421875 
Q 16.21875 41.5 20.09375 36.953125 
Q 23.96875 32.421875 30.609375 32.421875 
z
" id="DejaVuSans-39"/>
      <path d="M 31.78125 34.625 
Q 24.75 34.625 20.71875 30.859375 
Q 16.703125 27.09375 16.703125 20.515625 
Q 16.703125 13.921875 20.71875 10.15625 
Q 24.75 6.390625 31.78125 6.390625 
Q 38.8125 6.390625 42.859375 10.171875 
Q 46.921875 13.96875 46.921875 20.515625 
Q 46.921875 27.09375 42.890625 30.859375 
Q 38.875 34.625 31.78125 34.625 
z
M 21.921875 38.8125 
Q 15.578125 40.375 12.03125 44.71875 
Q 8.5 49.078125 8.5 55.328125 
Q 8.5 64.0625 14.71875 69.140625 
Q 20.953125 74.21875 31.78125 74.21875 
Q 42.671875 74.21875 48.875 69.140625 
Q 55.078125 64.0625 55.078125 55.328125 
Q 55.078125 49.078125 51.53125 44.71875 
Q 48 40.375 41.703125 38.8125 
Q 48.828125 37.15625 52.796875 32.3125 
Q 56.78125 27.484375 56.78125 20.515625 
Q 56.78125 9.90625 50.3125 4.234375 
Q 43.84375 -1.421875 31.78125 -1.421875 
Q 19.734375 -1.421875 13.25 4.234375 
Q 6.78125 9.90625 6.78125 20.515625 
Q 6.78125 27.484375 10.78125 32.3125 
Q 14.796875 37.15625 21.921875 38.8125 
z
M 18.3125 54.390625 
Q 18.3125 48.734375 21.84375 45.5625 
Q 25.390625 42.390625 31.78125 42.390625 
Q 38.140625 42.390625 41.71875 45.5625 
Q 45.3125 48.734375 45.3125 54.390625 
Q 45.3125 60.0625 41.71875 63.234375 
Q 38.140625 66.40625 31.78125 66.40625 
Q 25.390625 66.40625 21.84375 63.234375 
Q 18.3125 60.0625 18.3125 54.390625 
z
" id="DejaVuSans-38"/>
     </defs>
     <g style="fill:#a52a2a;" transform="translate(374.385138 140.066392)scale(0.077299 -0.077299)">
      <use xlink:href="#DejaVuSans-4c"/>
      <use x="55.712891" xlink:href="#DejaVuSans-4d"/>
      <use x="141.992188" xlink:href="#DejaVuSans-56"/>
      <use x="210.400391" xlink:href="#DejaVuSans-39"/>
      <use x="274.023438" xlink:href="#DejaVuSans-38"/>
      <use x="337.646484" xlink:href="#DejaVuSans-31"/>
     </g>
    </g>
   </g>
   <g id="text_33">
    <g clip-path="url(#p17ac3e0dd5)">
     <!-- 1 -->
     <g style="fill:#a52a2a;" transform="translate(78.96929 217.91967)rotate(-90)scale(0.077299 -0.077299)">
      <use xlink:href="#DejaVuSans-31"/>
     </g>
    </g>
   </g>
   <g id="text_34">
    <g clip-path="url(#p17ac3e0dd5)">
     <!-- E1 -->
     <defs>
      <path d="M 9.8125 72.90625 
L 55.90625 72.90625 
L 55.90625 64.59375 
L 19.671875 64.59375 
L 19.671875 43.015625 
L 54.390625 43.015625 
L 54.390625 34.71875 
L 19.671875 34.71875 
L 19.671875 8.296875 
L 56.78125 8.296875 
L 56.78125 0 
L 9.8125 0 
z
" id="DejaVuSans-45"/>
     </defs>
     <g style="fill:#008000;" transform="translate(82.16874 236.04068)rotate(-90)scale(0.077299 -0.077299)">
      <use xlink:href="#DejaVuSans-45"/>
      <use x="63.183594" xlink:href="#DejaVuSans-31"/>
     </g>
    </g>
   </g>
   <g id="text_35">
    <g clip-path="url(#p17ac3e0dd5)">
     <!-- 2 -->
     <g style="fill:#a52a2a;" transform="translate(78.96929 280.427892)rotate(-90)scale(0.077299 -0.077299)">
      <use xlink:href="#DejaVuSans-32"/>
     </g>
    </g>
   </g>
   <g id="text_36">
    <g clip-path="url(#p17ac3e0dd5)">
     <!-- E2 -->
     <g style="fill:#008000;" transform="translate(82.16874 267.191193)rotate(-90)scale(0.077299 -0.077299)">
      <use xlink:href="#DejaVuSans-45"/>
      <use x="63.183594" xlink:href="#DejaVuSans-32"/>
     </g>
    </g>
   </g>
   <g id="text_37">
    <g clip-path="url(#p17ac3e0dd5)">
     <!-- V101 -->
     <g style="fill:#a52a2a;" transform="translate(109.214759 242.96069)scale(0.077299 -0.077299)">
      <use xlink:href="#DejaVuSans-56"/>
      <use x="68.408203" xlink:href="#DejaVuSans-31"/>
      <use x="132.03125" xlink:href="#DejaVuSans-30"/>
      <use x="195.654297" xlink:href="#DejaVuSans-31"/>
     </g>
    </g>
   </g>
   <g id="text_38">
    <g clip-path="url(#p17ac3e0dd5)">
     <!-- VSOURCE -->
     <defs>
      <path d="M 39.40625 66.21875 
Q 28.65625 66.21875 22.328125 58.203125 
Q 16.015625 50.203125 16.015625 36.375 
Q 16.015625 22.609375 22.328125 14.59375 
Q 28.65625 6.59375 39.40625 6.59375 
Q 50.140625 6.59375 56.421875 14.59375 
Q 62.703125 22.609375 62.703125 36.375 
Q 62.703125 50.203125 56.421875 58.203125 
Q 50.140625 66.21875 39.40625 66.21875 
z
M 39.40625 74.21875 
Q 54.734375 74.21875 63.90625 63.9375 
Q 73.09375 53.65625 73.09375 36.375 
Q 73.09375 19.140625 63.90625 8.859375 
Q 54.734375 -1.421875 39.40625 -1.421875 
Q 24.03125 -1.421875 14.8125 8.828125 
Q 5.609375 19.09375 5.609375 36.375 
Q 5.609375 53.65625 14.8125 63.9375 
Q 24.03125 74.21875 39.40625 74.21875 
z
" id="DejaVuSans-4f"/>
     </defs>
     <g style="fill:#a52a2a;" transform="translate(109.214759 254.606686)scale(0.077299 -0.077299)">
      <use xlink:href="#DejaVuSans-56"/>
      <use x="68.408203" xlink:href="#DejaVuSans-53"/>
      <use x="131.884766" xlink:href="#DejaVuSans-4f"/>
      <use x="210.595703" xlink:href="#DejaVuSans-55"/>
      <use x="283.789062" xlink:href="#DejaVuSans-52"/>
      <use x="353.193359" xlink:href="#DejaVuSans-43"/>
      <use x="423.017578" xlink:href="#DejaVuSans-45"/>
     </g>
    </g>
   </g>
   <g id="text_39">
    <g clip-path="url(#p17ac3e0dd5)">
     <!-- VOUT -->
     <defs>
      <path d="M -0.296875 72.90625 
L 61.375 72.90625 
L 61.375 64.59375 
L 35.5 64.59375 
L 35.5 0 
L 25.59375 0 
L 25.59375 64.59375 
L -0.296875 64.59375 
z
" id="DejaVuSans-54"/>
     </defs>
     <g style="fill:#a52a2a;" transform="translate(534.357616 172.060887)scale(0.077299 -0.077299)">
      <use xlink:href="#DejaVuSans-56"/>
      <use x="68.392578" xlink:href="#DejaVuSans-4f"/>
      <use x="147.103516" xlink:href="#DejaVuSans-55"/>
      <use x="220.296875" xlink:href="#DejaVuSans-54"/>
     </g>
    </g>
   </g>
   <g id="text_40">
    <g clip-path="url(#p17ac3e0dd5)">
     <!-- VIN -->
     <defs>
      <path d="M 9.8125 72.90625 
L 19.671875 72.90625 
L 19.671875 0 
L 9.8125 0 
z
" id="DejaVuSans-49"/>
     </defs>
     <g transform="translate(80.035779 155.522557)scale(0.077299 -0.077299)">
      <use xlink:href="#DejaVuSans-56"/>
      <use x="68.408203" xlink:href="#DejaVuSans-49"/>
      <use x="97.900391" xlink:href="#DejaVuSans-4e"/>
     </g>
    </g>
   </g>
  </g>
 </g>
 <defs>
  <clipPath id="p17ac3e0dd5">
   <rect height="432" width="576" x="0" y="0"/>
  </clipPath>
 </defs>
</svg>
