<?xml version="1.0" encoding="utf-8" standalone="no"?>
<!DOCTYPE svg PUBLIC "-//W3C//DTD SVG 1.1//EN"
  "http://www.w3.org/Graphics/SVG/1.1/DTD/svg11.dtd">
<!-- Created with matplotlib (http://matplotlib.org/) -->
<svg height="432pt" version="1.1" viewBox="0 0 576 432" width="576pt" xmlns="http://www.w3.org/2000/svg" xmlns:xlink="http://www.w3.org/1999/xlink">
 <defs>
  <style type="text/css">
*{stroke-linecap:butt;stroke-linejoin:round;stroke-miterlimit:100000;}
  </style>
 </defs>
 <g id="figure_1">
  <g id="patch_1">
   <path d="M 0 432 
L 576 432 
L 576 0 
L 0 0 
z
" style="fill:#ffffff;"/>
  </g>
  <g id="axes_1">
   <g id="patch_2">
    <path d="M 0 432 
L 576 432 
L 576 0 
L 0 0 
z
" style="fill:#ffffff;"/>
   </g>
   <g id="EllipseCollection_1">
    <defs>
     <path d="M 0 3.085714 
C 0.818341 3.085714 1.603275 2.760584 2.181929 2.181929 
C 2.760584 1.603275 3.085714 0.818341 3.085714 0 
C 3.085714 -0.818341 2.760584 -1.603275 2.181929 -2.181929 
C 1.603275 -2.760584 0.818341 -3.085714 0 -3.085714 
C -0.818341 -3.085714 -1.603275 -2.760584 -2.181929 -2.181929 
C -2.760584 -1.603275 -3.085714 -0.818341 -3.085714 0 
C -3.085714 0.818341 -2.760584 1.603275 -2.181929 2.181929 
C -1.603275 2.760584 -0.818341 3.085714 0 3.085714 
z
" id="m68d2bd1d2a" style="stroke:#000000;"/>
    </defs>
    <g clip-path="url(#p98632545d8)">
     <use style="fill:#008000;stroke:#000000;" x="399.085714286" xlink:href="#m68d2bd1d2a" y="160.457142857"/>
     <use style="fill:#008000;stroke:#000000;" x="288.0" xlink:href="#m68d2bd1d2a" y="259.2"/>
     <use style="fill:#008000;stroke:#000000;" x="164.571428571" xlink:href="#m68d2bd1d2a" y="148.114285714"/>
     <use style="fill:#008000;stroke:#000000;" x="288.0" xlink:href="#m68d2bd1d2a" y="320.914285714"/>
     <use style="fill:#008000;stroke:#000000;" x="485.485714286" xlink:href="#m68d2bd1d2a" y="160.457142857"/>
     <use style="fill:#008000;stroke:#000000;" x="226.285714286" xlink:href="#m68d2bd1d2a" y="148.114285714"/>
     <use style="fill:#008000;stroke:#000000;" x="226.285714286" xlink:href="#m68d2bd1d2a" y="320.914285714"/>
    </g>
   </g>
   <g id="PathCollection_1">
    <path clip-path="url(#p98632545d8)" d="M 454.628571 165.394286 
L 429.942857 165.394286 
L 429.942857 155.52 
L 454.628571 155.52 
L 454.628571 165.394286 
" style="fill:none;stroke:#a52a2a;stroke-width:1.4284800000000002;"/>
    <path clip-path="url(#p98632545d8)" d="M 423.771429 160.457143 
L 429.942857 160.457143 
" style="fill:none;stroke:#a52a2a;stroke-width:1.4284800000000002;"/>
    <path clip-path="url(#p98632545d8)" d="M 460.8 160.457143 
L 454.628571 160.457143 
" style="fill:none;stroke:#a52a2a;stroke-width:1.4284800000000002;"/>
   </g>
   <g id="PathCollection_2">
    <path clip-path="url(#p98632545d8)" d="M 283.062857 302.4 
L 283.062857 277.714286 
L 292.937143 277.714286 
L 292.937143 302.4 
L 283.062857 302.4 
" style="fill:none;stroke:#a52a2a;stroke-width:1.4284800000000002;"/>
    <path clip-path="url(#p98632545d8)" d="M 288 271.542857 
L 288 277.714286 
" style="fill:none;stroke:#a52a2a;stroke-width:1.4284800000000002;"/>
    <path clip-path="url(#p98632545d8)" d="M 288 308.571429 
L 288 302.4 
" style="fill:none;stroke:#a52a2a;stroke-width:1.4284800000000002;"/>
   </g>
   <g id="PathCollection_3">
    <path clip-path="url(#p98632545d8)" d="M 355.885714 264.137143 
L 331.2 264.137143 
L 331.2 254.262857 
L 355.885714 254.262857 
L 355.885714 264.137143 
" style="fill:none;stroke:#a52a2a;stroke-width:1.4284800000000002;"/>
    <path clip-path="url(#p98632545d8)" d="M 325.028571 259.2 
L 331.2 259.2 
" style="fill:none;stroke:#a52a2a;stroke-width:1.4284800000000002;"/>
    <path clip-path="url(#p98632545d8)" d="M 362.057143 259.2 
L 355.885714 259.2 
" style="fill:none;stroke:#a52a2a;stroke-width:1.4284800000000002;"/>
   </g>
   <g id="PathCollection_4">
    <defs>
     <path d="M 288 -98.742857 
L 288 -92.571429 
L 294.171429 -92.571429 
L 288 -86.4 
L 281.828571 -92.571429 
L 288 -92.571429 
" id="m28cf3285dd" style="stroke:#a52a2a;stroke-width:1.4284800000000002;"/>
    </defs>
    <g clip-path="url(#p98632545d8)">
     <use style="fill-opacity:0.0;stroke:#a52a2a;stroke-width:1.4284800000000002;" x="0.0" xlink:href="#m28cf3285dd" y="432.0"/>
    </g>
   </g>
   <g id="PathCollection_5">
    <path clip-path="url(#p98632545d8)" d="M 207.771429 153.051429 
L 183.085714 153.051429 
L 183.085714 143.177143 
L 207.771429 143.177143 
L 207.771429 153.051429 
" style="fill:none;stroke:#a52a2a;stroke-width:1.4284800000000002;"/>
    <path clip-path="url(#p98632545d8)" d="M 176.914286 148.114286 
L 183.085714 148.114286 
" style="fill:none;stroke:#a52a2a;stroke-width:1.4284800000000002;"/>
    <path clip-path="url(#p98632545d8)" d="M 213.942857 148.114286 
L 207.771429 148.114286 
" style="fill:none;stroke:#a52a2a;stroke-width:1.4284800000000002;"/>
   </g>
   <g id="PathCollection_6">
    <path clip-path="url(#p98632545d8)" d="M 121.371429 143.177143 
L 146.057143 143.177143 
L 146.057143 153.051429 
L 121.371429 153.051429 
L 121.371429 143.177143 
" style="fill:none;stroke:#a52a2a;stroke-width:1.4284800000000002;"/>
    <path clip-path="url(#p98632545d8)" d="M 152.228571 148.114286 
L 146.057143 148.114286 
" style="fill:none;stroke:#a52a2a;stroke-width:1.4284800000000002;"/>
    <path clip-path="url(#p98632545d8)" d="M 115.2 148.114286 
L 121.371429 148.114286 
" style="fill:none;stroke:#a52a2a;stroke-width:1.4284800000000002;"/>
   </g>
   <g id="PathCollection_7">
    <path clip-path="url(#p98632545d8)" d="M 339.84 64.182857 
L 339.84 83.931429 
" style="fill:none;stroke:#a52a2a;stroke-width:2.8569600000000004;"/>
    <path clip-path="url(#p98632545d8)" d="M 347.245714 64.182857 
L 347.245714 83.931429 
" style="fill:none;stroke:#a52a2a;stroke-width:2.8569600000000004;"/>
    <path clip-path="url(#p98632545d8)" d="M 362.057143 74.057143 
L 348.48 74.057143 
" style="fill:none;stroke:#a52a2a;stroke-width:1.4284800000000002;"/>
    <path clip-path="url(#p98632545d8)" d="M 325.028571 74.057143 
L 338.605714 74.057143 
" style="fill:none;stroke:#a52a2a;stroke-width:1.4284800000000002;"/>
   </g>
   <g id="PathCollection_8">
    <path clip-path="url(#p98632545d8)" d="M 216.411429 256.731429 
L 236.16 256.731429 
" style="fill:none;stroke:#a52a2a;stroke-width:2.8569600000000004;"/>
    <path clip-path="url(#p98632545d8)" d="M 216.411429 249.325714 
L 236.16 249.325714 
" style="fill:none;stroke:#a52a2a;stroke-width:2.8569600000000004;"/>
    <path clip-path="url(#p98632545d8)" d="M 226.285714 234.514286 
L 226.285714 248.091429 
" style="fill:none;stroke:#a52a2a;stroke-width:1.4284800000000002;"/>
    <path clip-path="url(#p98632545d8)" d="M 226.285714 271.542857 
L 226.285714 257.965714 
" style="fill:none;stroke:#a52a2a;stroke-width:1.4284800000000002;"/>
   </g>
   <g id="PathCollection_9">
    <path clip-path="url(#p98632545d8)" d="M 475.611429 256.731429 
L 495.36 256.731429 
" style="fill:none;stroke:#a52a2a;stroke-width:2.8569600000000004;"/>
    <path clip-path="url(#p98632545d8)" d="M 475.611429 249.325714 
L 495.36 249.325714 
" style="fill:none;stroke:#a52a2a;stroke-width:2.8569600000000004;"/>
    <path clip-path="url(#p98632545d8)" d="M 485.485714 234.514286 
L 485.485714 248.091429 
" style="fill:none;stroke:#a52a2a;stroke-width:1.4284800000000002;"/>
    <path clip-path="url(#p98632545d8)" d="M 485.485714 271.542857 
L 485.485714 257.965714 
" style="fill:none;stroke:#a52a2a;stroke-width:1.4284800000000002;"/>
   </g>
   <g id="PathCollection_10">
    <path clip-path="url(#p98632545d8)" d="M 321.325714 117.257143 
L 325.028571 111.085714 
" style="fill:none;stroke:#a52a2a;stroke-width:1.4284800000000002;"/>
    <path clip-path="url(#p98632545d8)" d="M 325.028571 123.428571 
L 325.028571 111.085714 
" style="fill:none;stroke:#a52a2a;stroke-width:1.4284800000000002;"/>
    <path clip-path="url(#p98632545d8)" d="M 325.028571 111.085714 
L 328.731429 117.257143 
" style="fill:none;stroke:#a52a2a;stroke-width:1.4284800000000002;"/>
   </g>
   <g id="PathCollection_11">
    <defs>
     <path d="M 325.028571 -234.514286 
L 325.028571 -228.342857 
L 321.325714 -228.342857 
L 325.028571 -222.171429 
L 328.731429 -228.342857 
L 325.028571 -228.342857 
" id="m05d9a1bf01" style="stroke:#a52a2a;stroke-width:1.4284800000000002;"/>
    </defs>
    <g clip-path="url(#p98632545d8)">
     <use style="fill-opacity:0.0;stroke:#a52a2a;stroke-width:1.4284800000000002;" x="0.0" xlink:href="#m05d9a1bf01" y="432.0"/>
    </g>
   </g>
   <g id="PathCollection_12">
    <path clip-path="url(#p98632545d8)" d="M 78.171429 259.2 
C 84.718157 259.2 90.997629 256.598957 95.626865 251.969722 
C 100.2561 247.340486 102.857143 241.061014 102.857143 234.514286 
C 102.857143 227.967558 100.2561 221.688085 95.626865 217.05885 
C 90.997629 212.429614 84.718157 209.828571 78.171429 209.828571 
C 71.624701 209.828571 65.345228 212.429614 60.715993 217.05885 
C 56.086757 221.688085 53.485714 227.967558 53.485714 234.514286 
C 53.485714 241.061014 56.086757 247.340486 60.715993 251.969722 
C 65.345228 256.598957 71.624701 259.2 78.171429 259.2 
L 78.171429 259.2 
z
" style="fill:none;stroke:#a52a2a;stroke-width:1.4284800000000002;"/>
    <path clip-path="url(#p98632545d8)" d="M 47.314286 265.371429 
L 47.314286 216 
" style="fill:none;stroke:#a52a2a;stroke-width:1.4284800000000002;"/>
    <path clip-path="url(#p98632545d8)" d="M 41.142857 216 
L 47.314286 203.657143 
L 53.485714 216 
" style="fill:none;stroke:#a52a2a;stroke-width:1.4284800000000002;"/>
    <path clip-path="url(#p98632545d8)" d="M 78.171429 197.485714 
L 78.171429 209.828571 
" style="fill:none;stroke:#a52a2a;stroke-width:1.4284800000000002;"/>
    <path clip-path="url(#p98632545d8)" d="M 78.171429 271.542857 
L 78.171429 259.2 
" style="fill:none;stroke:#a52a2a;stroke-width:1.4284800000000002;"/>
   </g>
   <g id="PathCollection_13">
    <path clip-path="url(#p98632545d8)" d="M 312.685714 135.771429 
L 362.057143 160.457143 
L 312.685714 185.142857 
L 312.685714 135.771429 
" style="fill:none;stroke:#a52a2a;stroke-width:1.4284800000000002;"/>
    <path clip-path="url(#p98632545d8)" d="M 325.028571 197.485714 
L 325.028571 178.971429 
" style="fill:none;stroke:#a52a2a;stroke-width:1.4284800000000002;"/>
    <path clip-path="url(#p98632545d8)" d="M 325.028571 123.428571 
L 325.028571 141.942857 
" style="fill:none;stroke:#a52a2a;stroke-width:1.4284800000000002;"/>
    <path clip-path="url(#p98632545d8)" d="M 374.4 160.457143 
L 362.057143 160.457143 
" style="fill:none;stroke:#a52a2a;stroke-width:1.4284800000000002;"/>
    <path clip-path="url(#p98632545d8)" d="M 300.342857 148.114286 
L 312.685714 148.114286 
" style="fill:none;stroke:#a52a2a;stroke-width:1.4284800000000002;"/>
    <path clip-path="url(#p98632545d8)" d="M 300.342857 172.8 
L 312.685714 172.8 
" style="fill:none;stroke:#a52a2a;stroke-width:1.4284800000000002;"/>
   </g>
   <g id="LineCollection_1">
    <path clip-path="url(#p98632545d8)" d="M 362.057143 259.2 
L 399.085714 259.2 
" style="fill:none;stroke:#008000;stroke-width:1.4284800000000002;"/>
    <path clip-path="url(#p98632545d8)" d="M 399.085714 259.2 
L 399.085714 160.457143 
" style="fill:none;stroke:#008000;stroke-width:1.4284800000000002;"/>
    <path clip-path="url(#p98632545d8)" d="M 399.085714 160.457143 
L 374.4 160.457143 
" style="fill:none;stroke:#008000;stroke-width:1.4284800000000002;"/>
    <path clip-path="url(#p98632545d8)" d="M 423.771429 160.457143 
L 399.085714 160.457143 
" style="fill:none;stroke:#008000;stroke-width:1.4284800000000002;"/>
    <path clip-path="url(#p98632545d8)" d="M 325.028571 259.2 
L 288 259.2 
" style="fill:none;stroke:#008000;stroke-width:1.4284800000000002;"/>
    <path clip-path="url(#p98632545d8)" d="M 288 259.2 
L 288 172.8 
" style="fill:none;stroke:#008000;stroke-width:1.4284800000000002;"/>
    <path clip-path="url(#p98632545d8)" d="M 288 172.8 
L 300.342857 172.8 
" style="fill:none;stroke:#008000;stroke-width:1.4284800000000002;"/>
    <path clip-path="url(#p98632545d8)" d="M 288 271.542857 
L 288 259.2 
" style="fill:none;stroke:#008000;stroke-width:1.4284800000000002;"/>
    <path clip-path="url(#p98632545d8)" d="M 213.942857 148.114286 
L 226.285714 148.114286 
" style="fill:none;stroke:#008000;stroke-width:1.4284800000000002;"/>
    <path clip-path="url(#p98632545d8)" d="M 176.914286 148.114286 
L 164.571429 148.114286 
" style="fill:none;stroke:#008000;stroke-width:1.4284800000000002;"/>
    <path clip-path="url(#p98632545d8)" d="M 510.171429 160.457143 
L 485.485714 160.457143 
" style="fill:none;stroke:#008000;stroke-width:1.4284800000000002;"/>
    <path clip-path="url(#p98632545d8)" d="M 362.057143 74.057143 
L 399.085714 74.057143 
" style="fill:none;stroke:#008000;stroke-width:1.4284800000000002;"/>
    <path clip-path="url(#p98632545d8)" d="M 399.085714 74.057143 
L 399.085714 160.457143 
" style="fill:none;stroke:#008000;stroke-width:1.4284800000000002;"/>
    <path clip-path="url(#p98632545d8)" d="M 164.571429 74.057143 
L 164.571429 148.114286 
" style="fill:none;stroke:#008000;stroke-width:1.4284800000000002;"/>
    <path clip-path="url(#p98632545d8)" d="M 164.571429 148.114286 
L 152.228571 148.114286 
" style="fill:none;stroke:#008000;stroke-width:1.4284800000000002;"/>
    <path clip-path="url(#p98632545d8)" d="M 226.285714 234.514286 
L 226.285714 148.114286 
" style="fill:none;stroke:#008000;stroke-width:1.4284800000000002;"/>
    <path clip-path="url(#p98632545d8)" d="M 226.285714 148.114286 
L 300.342857 148.114286 
" style="fill:none;stroke:#008000;stroke-width:1.4284800000000002;"/>
    <path clip-path="url(#p98632545d8)" d="M 226.285714 271.542857 
L 226.285714 320.914286 
" style="fill:none;stroke:#008000;stroke-width:1.4284800000000002;"/>
    <path clip-path="url(#p98632545d8)" d="M 226.285714 320.914286 
L 288 320.914286 
" style="fill:none;stroke:#008000;stroke-width:1.4284800000000002;"/>
    <path clip-path="url(#p98632545d8)" d="M 288 320.914286 
L 288 308.571429 
" style="fill:none;stroke:#008000;stroke-width:1.4284800000000002;"/>
    <path clip-path="url(#p98632545d8)" d="M 485.485714 234.514286 
L 485.485714 160.457143 
" style="fill:none;stroke:#008000;stroke-width:1.4284800000000002;"/>
    <path clip-path="url(#p98632545d8)" d="M 485.485714 160.457143 
L 460.8 160.457143 
" style="fill:none;stroke:#008000;stroke-width:1.4284800000000002;"/>
    <path clip-path="url(#p98632545d8)" d="M 485.485714 271.542857 
L 485.485714 320.914286 
" style="fill:none;stroke:#008000;stroke-width:1.4284800000000002;"/>
    <path clip-path="url(#p98632545d8)" d="M 485.485714 320.914286 
L 288 320.914286 
" style="fill:none;stroke:#008000;stroke-width:1.4284800000000002;"/>
    <path clip-path="url(#p98632545d8)" d="M 288 333.257143 
L 288 320.914286 
" style="fill:none;stroke:#008000;stroke-width:1.4284800000000002;"/>
    <path clip-path="url(#p98632545d8)" d="M 164.571429 74.057143 
L 325.028571 74.057143 
" style="fill:none;stroke:#008000;stroke-width:1.4284800000000002;"/>
    <path clip-path="url(#p98632545d8)" d="M 78.171429 148.114286 
L 78.171429 197.485714 
" style="fill:none;stroke:#008000;stroke-width:1.4284800000000002;"/>
    <path clip-path="url(#p98632545d8)" d="M 78.171429 148.114286 
L 115.2 148.114286 
" style="fill:none;stroke:#008000;stroke-width:1.4284800000000002;"/>
    <path clip-path="url(#p98632545d8)" d="M 78.171429 271.542857 
L 78.171429 320.914286 
" style="fill:none;stroke:#008000;stroke-width:1.4284800000000002;"/>
    <path clip-path="url(#p98632545d8)" d="M 78.171429 320.914286 
L 226.285714 320.914286 
" style="fill:none;stroke:#008000;stroke-width:1.4284800000000002;"/>
   </g>
   <g id="LineCollection_2"/>
   <g id="LineCollection_3"/>
   <g id="patch_3">
    <path d="M 576 432 
L 576 -0 
" style="fill:none;stroke:#000000;stroke-linecap:square;stroke-linejoin:miter;"/>
   </g>
   <g id="patch_4">
    <path d="M 0 432 
L 0 -0 
" style="fill:none;stroke:#000000;stroke-linecap:square;stroke-linejoin:miter;"/>
   </g>
   <g id="patch_5">
    <path d="M -0 432 
L 576 432 
" style="fill:none;stroke:#000000;stroke-linecap:square;stroke-linejoin:miter;"/>
   </g>
   <g id="patch_6">
    <path d="M -0 0 
L 576 0 
" style="fill:none;stroke:#000000;stroke-linecap:square;stroke-linejoin:miter;"/>
   </g>
   <g id="text_1">
    <g clip-path="url(#p98632545d8)">
     <!-- R105 -->
     <defs>
      <path d="M 12.40625 8.296875 
L 28.515625 8.296875 
L 28.515625 63.921875 
L 10.984375 60.40625 
L 10.984375 69.390625 
L 28.421875 72.90625 
L 38.28125 72.90625 
L 38.28125 8.296875 
L 54.390625 8.296875 
L 54.390625 0 
L 12.40625 0 
z
" id="BitstreamVeraSans-Roman-31"/>
      <path d="M 44.390625 34.1875 
Q 47.5625 33.109375 50.5625 29.59375 
Q 53.5625 26.078125 56.59375 19.921875 
L 66.609375 0 
L 56 0 
L 46.6875 18.703125 
Q 43.0625 26.03125 39.671875 28.421875 
Q 36.28125 30.8125 30.421875 30.8125 
L 19.671875 30.8125 
L 19.671875 0 
L 9.8125 0 
L 9.8125 72.90625 
L 32.078125 72.90625 
Q 44.578125 72.90625 50.734375 67.671875 
Q 56.890625 62.453125 56.890625 51.90625 
Q 56.890625 45.015625 53.6875 40.46875 
Q 50.484375 35.9375 44.390625 34.1875 
M 19.671875 64.796875 
L 19.671875 38.921875 
L 32.078125 38.921875 
Q 39.203125 38.921875 42.84375 42.21875 
Q 46.484375 45.515625 46.484375 51.90625 
Q 46.484375 58.296875 42.84375 61.546875 
Q 39.203125 64.796875 32.078125 64.796875 
z
" id="BitstreamVeraSans-Roman-52"/>
      <path d="M 10.796875 72.90625 
L 49.515625 72.90625 
L 49.515625 64.59375 
L 19.828125 64.59375 
L 19.828125 46.734375 
Q 21.96875 47.46875 24.109375 47.828125 
Q 26.265625 48.1875 28.421875 48.1875 
Q 40.625 48.1875 47.75 41.5 
Q 54.890625 34.8125 54.890625 23.390625 
Q 54.890625 11.625 47.5625 5.09375 
Q 40.234375 -1.421875 26.90625 -1.421875 
Q 22.3125 -1.421875 17.546875 -0.640625 
Q 12.796875 0.140625 7.71875 1.703125 
L 7.71875 11.625 
Q 12.109375 9.234375 16.796875 8.0625 
Q 21.484375 6.890625 26.703125 6.890625 
Q 35.15625 6.890625 40.078125 11.328125 
Q 45.015625 15.765625 45.015625 23.390625 
Q 45.015625 31 40.078125 35.4375 
Q 35.15625 39.890625 26.703125 39.890625 
Q 22.75 39.890625 18.8125 39.015625 
Q 14.890625 38.140625 10.796875 36.28125 
z
" id="BitstreamVeraSans-Roman-35"/>
      <path d="M 31.78125 66.40625 
Q 24.171875 66.40625 20.328125 58.90625 
Q 16.5 51.421875 16.5 36.375 
Q 16.5 21.390625 20.328125 13.890625 
Q 24.171875 6.390625 31.78125 6.390625 
Q 39.453125 6.390625 43.28125 13.890625 
Q 47.125 21.390625 47.125 36.375 
Q 47.125 51.421875 43.28125 58.90625 
Q 39.453125 66.40625 31.78125 66.40625 
M 31.78125 74.21875 
Q 44.046875 74.21875 50.515625 64.515625 
Q 56.984375 54.828125 56.984375 36.375 
Q 56.984375 17.96875 50.515625 8.265625 
Q 44.046875 -1.421875 31.78125 -1.421875 
Q 19.53125 -1.421875 13.0625 8.265625 
Q 6.59375 17.96875 6.59375 36.375 
Q 6.59375 54.828125 13.0625 64.515625 
Q 19.53125 74.21875 31.78125 74.21875 
" id="BitstreamVeraSans-Roman-30"/>
     </defs>
     <g style="fill:#a52a2a;" transform="translate(432.987760286 136.878284571)scale(0.07142400000000002 -0.07142400000000002)">
      <use xlink:href="#BitstreamVeraSans-Roman-52"/>
      <use x="69.482421875" xlink:href="#BitstreamVeraSans-Roman-31"/>
      <use x="133.10546875" xlink:href="#BitstreamVeraSans-Roman-30"/>
      <use x="196.728515625" xlink:href="#BitstreamVeraSans-Roman-35"/>
     </g>
    </g>
   </g>
   <g id="text_2">
    <g clip-path="url(#p98632545d8)">
     <!-- 10k -->
     <defs>
      <path d="M 9.078125 75.984375 
L 18.109375 75.984375 
L 18.109375 31.109375 
L 44.921875 54.6875 
L 56.390625 54.6875 
L 27.390625 29.109375 
L 57.625 0 
L 45.90625 0 
L 18.109375 26.703125 
L 18.109375 0 
L 9.078125 0 
z
" id="BitstreamVeraSans-Roman-6b"/>
     </defs>
     <g style="fill:#a52a2a;" transform="translate(435.673414286 148.110284571)scale(0.07142400000000002 -0.07142400000000002)">
      <use xlink:href="#BitstreamVeraSans-Roman-31"/>
      <use x="63.623046875" xlink:href="#BitstreamVeraSans-Roman-30"/>
      <use x="127.24609375" xlink:href="#BitstreamVeraSans-Roman-6b"/>
     </g>
    </g>
   </g>
   <g id="text_3">
    <g clip-path="url(#p98632545d8)">
     <!-- R103 -->
     <defs>
      <path d="M 40.578125 39.3125 
Q 47.65625 37.796875 51.625 33 
Q 55.609375 28.21875 55.609375 21.1875 
Q 55.609375 10.40625 48.1875 4.484375 
Q 40.765625 -1.421875 27.09375 -1.421875 
Q 22.515625 -1.421875 17.65625 -0.515625 
Q 12.796875 0.390625 7.625 2.203125 
L 7.625 11.71875 
Q 11.71875 9.328125 16.59375 8.109375 
Q 21.484375 6.890625 26.8125 6.890625 
Q 36.078125 6.890625 40.9375 10.546875 
Q 45.796875 14.203125 45.796875 21.1875 
Q 45.796875 27.640625 41.28125 31.265625 
Q 36.765625 34.90625 28.71875 34.90625 
L 20.21875 34.90625 
L 20.21875 43.015625 
L 29.109375 43.015625 
Q 36.375 43.015625 40.234375 45.921875 
Q 44.09375 48.828125 44.09375 54.296875 
Q 44.09375 59.90625 40.109375 62.90625 
Q 36.140625 65.921875 28.71875 65.921875 
Q 24.65625 65.921875 20.015625 65.03125 
Q 15.375 64.15625 9.8125 62.3125 
L 9.8125 71.09375 
Q 15.4375 72.65625 20.34375 73.4375 
Q 25.25 74.21875 29.59375 74.21875 
Q 40.828125 74.21875 47.359375 69.109375 
Q 53.90625 64.015625 53.90625 55.328125 
Q 53.90625 49.265625 50.4375 45.09375 
Q 46.96875 40.921875 40.578125 39.3125 
" id="BitstreamVeraSans-Roman-33"/>
     </defs>
     <g style="fill:#a52a2a;" transform="translate(296.64 286.350284571)scale(0.07142400000000002 -0.07142400000000002)">
      <use xlink:href="#BitstreamVeraSans-Roman-52"/>
      <use x="69.482421875" xlink:href="#BitstreamVeraSans-Roman-31"/>
      <use x="133.10546875" xlink:href="#BitstreamVeraSans-Roman-30"/>
      <use x="196.728515625" xlink:href="#BitstreamVeraSans-Roman-33"/>
     </g>
    </g>
   </g>
   <g id="text_4">
    <g clip-path="url(#p98632545d8)">
     <!-- 1k -->
     <g style="fill:#a52a2a;" transform="translate(296.64 297.582284571)scale(0.07142400000000002 -0.07142400000000002)">
      <use xlink:href="#BitstreamVeraSans-Roman-31"/>
      <use x="63.623046875" xlink:href="#BitstreamVeraSans-Roman-6b"/>
     </g>
    </g>
   </g>
   <g id="text_5">
    <g clip-path="url(#p98632545d8)">
     <!-- R104 -->
     <defs>
      <path d="M 37.796875 64.3125 
L 12.890625 25.390625 
L 37.796875 25.390625 
z
M 35.203125 72.90625 
L 47.609375 72.90625 
L 47.609375 25.390625 
L 58.015625 25.390625 
L 58.015625 17.1875 
L 47.609375 17.1875 
L 47.609375 0 
L 37.796875 0 
L 37.796875 17.1875 
L 4.890625 17.1875 
L 4.890625 26.703125 
z
" id="BitstreamVeraSans-Roman-34"/>
     </defs>
     <g style="fill:#a52a2a;" transform="translate(334.244903143 235.621141714)scale(0.07142400000000002 -0.07142400000000002)">
      <use xlink:href="#BitstreamVeraSans-Roman-52"/>
      <use x="69.482421875" xlink:href="#BitstreamVeraSans-Roman-31"/>
      <use x="133.10546875" xlink:href="#BitstreamVeraSans-Roman-30"/>
      <use x="196.728515625" xlink:href="#BitstreamVeraSans-Roman-34"/>
     </g>
    </g>
   </g>
   <g id="text_6">
    <g clip-path="url(#p98632545d8)">
     <!-- 1k -->
     <g style="fill:#a52a2a;" transform="translate(339.202733143 246.853141714)scale(0.07142400000000002 -0.07142400000000002)">
      <use xlink:href="#BitstreamVeraSans-Roman-31"/>
      <use x="63.623046875" xlink:href="#BitstreamVeraSans-Roman-6b"/>
     </g>
    </g>
   </g>
   <g id="text_7">
    <g clip-path="url(#p98632545d8)">
     <!-- GND -->
     <defs>
      <path d="M 59.515625 10.40625 
L 59.515625 29.984375 
L 43.40625 29.984375 
L 43.40625 38.09375 
L 69.28125 38.09375 
L 69.28125 6.78125 
Q 63.578125 2.734375 56.6875 0.65625 
Q 49.8125 -1.421875 42 -1.421875 
Q 24.90625 -1.421875 15.25 8.5625 
Q 5.609375 18.5625 5.609375 36.375 
Q 5.609375 54.25 15.25 64.234375 
Q 24.90625 74.21875 42 74.21875 
Q 49.125 74.21875 55.546875 72.453125 
Q 61.96875 70.703125 67.390625 67.28125 
L 67.390625 56.78125 
Q 61.921875 61.421875 55.765625 63.765625 
Q 49.609375 66.109375 42.828125 66.109375 
Q 29.4375 66.109375 22.71875 58.640625 
Q 16.015625 51.171875 16.015625 36.375 
Q 16.015625 21.625 22.71875 14.15625 
Q 29.4375 6.6875 42.828125 6.6875 
Q 48.046875 6.6875 52.140625 7.59375 
Q 56.25 8.5 59.515625 10.40625 
" id="BitstreamVeraSans-Roman-47"/>
      <path d="M 9.8125 72.90625 
L 23.09375 72.90625 
L 55.421875 11.921875 
L 55.421875 72.90625 
L 64.984375 72.90625 
L 64.984375 0 
L 51.703125 0 
L 19.390625 60.984375 
L 19.390625 0 
L 9.8125 0 
z
" id="BitstreamVeraSans-Roman-4e"/>
      <path d="M 19.671875 64.796875 
L 19.671875 8.109375 
L 31.59375 8.109375 
Q 46.6875 8.109375 53.6875 14.9375 
Q 60.6875 21.78125 60.6875 36.53125 
Q 60.6875 51.171875 53.6875 57.984375 
Q 46.6875 64.796875 31.59375 64.796875 
z
M 9.8125 72.90625 
L 30.078125 72.90625 
Q 51.265625 72.90625 61.171875 64.09375 
Q 71.09375 55.28125 71.09375 36.53125 
Q 71.09375 17.671875 61.125 8.828125 
Q 51.171875 0 30.078125 0 
L 9.8125 0 
z
" id="BitstreamVeraSans-Roman-44"/>
     </defs>
     <g style="fill:#a52a2a;" transform="translate(280.428492857 356.581141714)scale(0.07142400000000002 -0.07142400000000002)">
      <use xlink:href="#BitstreamVeraSans-Roman-47"/>
      <use x="77.490234375" xlink:href="#BitstreamVeraSans-Roman-4e"/>
      <use x="152.294921875" xlink:href="#BitstreamVeraSans-Roman-44"/>
     </g>
    </g>
   </g>
   <g id="text_8">
    <g clip-path="url(#p98632545d8)">
     <!-- R102 -->
     <defs>
      <path d="M 19.1875 8.296875 
L 53.609375 8.296875 
L 53.609375 0 
L 7.328125 0 
L 7.328125 8.296875 
Q 12.9375 14.109375 22.625 23.890625 
Q 32.328125 33.6875 34.8125 36.53125 
Q 39.546875 41.84375 41.421875 45.53125 
Q 43.3125 49.21875 43.3125 52.78125 
Q 43.3125 58.59375 39.234375 62.25 
Q 35.15625 65.921875 28.609375 65.921875 
Q 23.96875 65.921875 18.8125 64.3125 
Q 13.671875 62.703125 7.8125 59.421875 
L 7.8125 69.390625 
Q 13.765625 71.78125 18.9375 73 
Q 24.125 74.21875 28.421875 74.21875 
Q 39.75 74.21875 46.484375 68.546875 
Q 53.21875 62.890625 53.21875 53.421875 
Q 53.21875 48.921875 51.53125 44.890625 
Q 49.859375 40.875 45.40625 35.40625 
Q 44.1875 33.984375 37.640625 27.21875 
Q 31.109375 20.453125 19.1875 8.296875 
" id="BitstreamVeraSans-Roman-32"/>
     </defs>
     <g style="fill:#a52a2a;" transform="translate(186.130617429 124.535427429)scale(0.07142400000000002 -0.07142400000000002)">
      <use xlink:href="#BitstreamVeraSans-Roman-52"/>
      <use x="69.482421875" xlink:href="#BitstreamVeraSans-Roman-31"/>
      <use x="133.10546875" xlink:href="#BitstreamVeraSans-Roman-30"/>
      <use x="196.728515625" xlink:href="#BitstreamVeraSans-Roman-32"/>
     </g>
    </g>
   </g>
   <g id="text_9">
    <g clip-path="url(#p98632545d8)">
     <!-- 10k -->
     <g style="fill:#a52a2a;" transform="translate(188.816271429 135.767427429)scale(0.07142400000000002 -0.07142400000000002)">
      <use xlink:href="#BitstreamVeraSans-Roman-31"/>
      <use x="63.623046875" xlink:href="#BitstreamVeraSans-Roman-30"/>
      <use x="127.24609375" xlink:href="#BitstreamVeraSans-Roman-6b"/>
     </g>
    </g>
   </g>
   <g id="text_10">
    <g clip-path="url(#p98632545d8)">
     <!-- R101 -->
     <g style="fill:#a52a2a;" transform="translate(124.416331714 124.535427429)scale(0.07142400000000002 -0.07142400000000002)">
      <use xlink:href="#BitstreamVeraSans-Roman-52"/>
      <use x="69.482421875" xlink:href="#BitstreamVeraSans-Roman-31"/>
      <use x="133.10546875" xlink:href="#BitstreamVeraSans-Roman-30"/>
      <use x="196.728515625" xlink:href="#BitstreamVeraSans-Roman-31"/>
     </g>
    </g>
   </g>
   <g id="text_11">
    <g clip-path="url(#p98632545d8)">
     <!-- 10k -->
     <g style="fill:#a52a2a;" transform="translate(127.101985714 135.767427429)scale(0.07142400000000002 -0.07142400000000002)">
      <use xlink:href="#BitstreamVeraSans-Roman-31"/>
      <use x="63.623046875" xlink:href="#BitstreamVeraSans-Roman-30"/>
      <use x="127.24609375" xlink:href="#BitstreamVeraSans-Roman-6b"/>
     </g>
    </g>
   </g>
   <g id="text_12">
    <g clip-path="url(#p98632545d8)">
     <!-- C102 -->
     <defs>
      <path d="M 64.40625 67.28125 
L 64.40625 56.890625 
Q 59.421875 61.53125 53.78125 63.8125 
Q 48.140625 66.109375 41.796875 66.109375 
Q 29.296875 66.109375 22.65625 58.46875 
Q 16.015625 50.828125 16.015625 36.375 
Q 16.015625 21.96875 22.65625 14.328125 
Q 29.296875 6.6875 41.796875 6.6875 
Q 48.140625 6.6875 53.78125 8.984375 
Q 59.421875 11.28125 64.40625 15.921875 
L 64.40625 5.609375 
Q 59.234375 2.09375 53.4375 0.328125 
Q 47.65625 -1.421875 41.21875 -1.421875 
Q 24.65625 -1.421875 15.125 8.703125 
Q 5.609375 18.84375 5.609375 36.375 
Q 5.609375 53.953125 15.125 64.078125 
Q 24.65625 74.21875 41.21875 74.21875 
Q 47.75 74.21875 53.53125 72.484375 
Q 59.328125 70.75 64.40625 67.28125 
" id="BitstreamVeraSans-Roman-43"/>
     </defs>
     <g style="fill:#a52a2a;" transform="translate(334.232627143 44.9239988571)scale(0.07142400000000002 -0.07142400000000002)">
      <use xlink:href="#BitstreamVeraSans-Roman-43"/>
      <use x="69.82421875" xlink:href="#BitstreamVeraSans-Roman-31"/>
      <use x="133.447265625" xlink:href="#BitstreamVeraSans-Roman-30"/>
      <use x="197.0703125" xlink:href="#BitstreamVeraSans-Roman-32"/>
     </g>
    </g>
   </g>
   <g id="text_13">
    <g clip-path="url(#p98632545d8)">
     <!-- 352n -->
     <defs>
      <path d="M 54.890625 33.015625 
L 54.890625 0 
L 45.90625 0 
L 45.90625 32.71875 
Q 45.90625 40.484375 42.875 44.328125 
Q 39.84375 48.1875 33.796875 48.1875 
Q 26.515625 48.1875 22.3125 43.546875 
Q 18.109375 38.921875 18.109375 30.90625 
L 18.109375 0 
L 9.078125 0 
L 9.078125 54.6875 
L 18.109375 54.6875 
L 18.109375 46.1875 
Q 21.34375 51.125 25.703125 53.5625 
Q 30.078125 56 35.796875 56 
Q 45.21875 56 50.046875 50.171875 
Q 54.890625 44.34375 54.890625 33.015625 
" id="BitstreamVeraSans-Roman-6e"/>
     </defs>
     <g style="fill:#a52a2a;" transform="translate(334.463081143 56.1559988571)scale(0.07142400000000002 -0.07142400000000002)">
      <use xlink:href="#BitstreamVeraSans-Roman-33"/>
      <use x="63.623046875" xlink:href="#BitstreamVeraSans-Roman-35"/>
      <use x="127.24609375" xlink:href="#BitstreamVeraSans-Roman-32"/>
      <use x="190.869140625" xlink:href="#BitstreamVeraSans-Roman-6e"/>
     </g>
    </g>
   </g>
   <g id="text_14">
    <g clip-path="url(#p98632545d8)">
     <!-- C101 -->
     <g style="fill:#a52a2a;" transform="translate(240.48 249.321713143)scale(0.07142400000000002 -0.07142400000000002)">
      <use xlink:href="#BitstreamVeraSans-Roman-43"/>
      <use x="69.82421875" xlink:href="#BitstreamVeraSans-Roman-31"/>
      <use x="133.447265625" xlink:href="#BitstreamVeraSans-Roman-30"/>
      <use x="197.0703125" xlink:href="#BitstreamVeraSans-Roman-31"/>
     </g>
    </g>
   </g>
   <g id="text_15">
    <g clip-path="url(#p98632545d8)">
     <!-- 352n -->
     <g style="fill:#a52a2a;" transform="translate(240.48 260.553713143)scale(0.07142400000000002 -0.07142400000000002)">
      <use xlink:href="#BitstreamVeraSans-Roman-33"/>
      <use x="63.623046875" xlink:href="#BitstreamVeraSans-Roman-35"/>
      <use x="127.24609375" xlink:href="#BitstreamVeraSans-Roman-32"/>
      <use x="190.869140625" xlink:href="#BitstreamVeraSans-Roman-6e"/>
     </g>
    </g>
   </g>
   <g id="text_16">
    <g clip-path="url(#p98632545d8)">
     <!-- C103 -->
     <g style="fill:#a52a2a;" transform="translate(499.68 249.321713143)scale(0.07142400000000002 -0.07142400000000002)">
      <use xlink:href="#BitstreamVeraSans-Roman-43"/>
      <use x="69.82421875" xlink:href="#BitstreamVeraSans-Roman-31"/>
      <use x="133.447265625" xlink:href="#BitstreamVeraSans-Roman-30"/>
      <use x="197.0703125" xlink:href="#BitstreamVeraSans-Roman-33"/>
     </g>
    </g>
   </g>
   <g id="text_17">
    <g clip-path="url(#p98632545d8)">
     <!-- 352n -->
     <g style="fill:#a52a2a;" transform="translate(499.68 260.553713143)scale(0.07142400000000002 -0.07142400000000002)">
      <use xlink:href="#BitstreamVeraSans-Roman-33"/>
      <use x="63.623046875" xlink:href="#BitstreamVeraSans-Roman-35"/>
      <use x="127.24609375" xlink:href="#BitstreamVeraSans-Roman-32"/>
      <use x="190.869140625" xlink:href="#BitstreamVeraSans-Roman-6e"/>
     </g>
    </g>
   </g>
   <g id="text_18">
    <g clip-path="url(#p98632545d8)">
     <!-- +2V5 -->
     <defs>
      <path d="M 28.609375 0 
L 0.78125 72.90625 
L 11.078125 72.90625 
L 34.1875 11.53125 
L 57.328125 72.90625 
L 67.578125 72.90625 
L 39.796875 0 
z
" id="BitstreamVeraSans-Roman-56"/>
      <path d="M 46 62.703125 
L 46 35.5 
L 73.1875 35.5 
L 73.1875 27.203125 
L 46 27.203125 
L 46 0 
L 37.796875 0 
L 37.796875 27.203125 
L 10.59375 27.203125 
L 10.59375 35.5 
L 37.796875 35.5 
L 37.796875 62.703125 
z
" id="BitstreamVeraSans-Roman-2b"/>
     </defs>
     <g style="fill:#a52a2a;" transform="translate(316.90017 104.046284571)scale(0.07142400000000002 -0.07142400000000002)">
      <use xlink:href="#BitstreamVeraSans-Roman-2b"/>
      <use x="83.7890625" xlink:href="#BitstreamVeraSans-Roman-32"/>
      <use x="147.412109375" xlink:href="#BitstreamVeraSans-Roman-56"/>
      <use x="215.8203125" xlink:href="#BitstreamVeraSans-Roman-35"/>
     </g>
    </g>
   </g>
   <g id="text_19">
    <g clip-path="url(#p98632545d8)">
     <!-- -2V5 -->
     <defs>
      <path d="M 4.890625 31.390625 
L 31.203125 31.390625 
L 31.203125 23.390625 
L 4.890625 23.390625 
z
" id="BitstreamVeraSans-Roman-2d"/>
     </defs>
     <g style="fill:#a52a2a;" transform="translate(314.901444857 220.809713143)scale(0.07142400000000002 -0.07142400000000002)">
      <use xlink:href="#BitstreamVeraSans-Roman-2d"/>
      <use x="36.083984375" xlink:href="#BitstreamVeraSans-Roman-32"/>
      <use x="99.70703125" xlink:href="#BitstreamVeraSans-Roman-56"/>
      <use x="168.115234375" xlink:href="#BitstreamVeraSans-Roman-35"/>
     </g>
    </g>
   </g>
   <g id="text_20">
    <g clip-path="url(#p98632545d8)">
     <!-- 1 -->
     <g style="fill:#a52a2a;" transform="translate(77.0565702857 206.742857143)rotate(-90.0)scale(0.07142400000000002 -0.07142400000000002)">
      <use xlink:href="#BitstreamVeraSans-Roman-31"/>
     </g>
    </g>
   </g>
   <g id="text_21">
    <g clip-path="url(#p98632545d8)">
     <!-- E1 -->
     <defs>
      <path d="M 9.8125 72.90625 
L 55.90625 72.90625 
L 55.90625 64.59375 
L 19.671875 64.59375 
L 19.671875 43.015625 
L 54.390625 43.015625 
L 54.390625 34.71875 
L 19.671875 34.71875 
L 19.671875 8.296875 
L 56.78125 8.296875 
L 56.78125 0 
L 9.8125 0 
z
" id="BitstreamVeraSans-Roman-45"/>
     </defs>
     <g style="fill:#008000;" transform="translate(80.1422845714 223.823170286)rotate(-90.0)scale(0.07142400000000002 -0.07142400000000002)">
      <use xlink:href="#BitstreamVeraSans-Roman-45"/>
      <use x="63.18359375" xlink:href="#BitstreamVeraSans-Roman-31"/>
     </g>
    </g>
   </g>
   <g id="text_22">
    <g clip-path="url(#p98632545d8)">
     <!-- 2 -->
     <g style="fill:#a52a2a;" transform="translate(77.0565702857 266.830066286)rotate(-90.0)scale(0.07142400000000002 -0.07142400000000002)">
      <use xlink:href="#BitstreamVeraSans-Roman-32"/>
     </g>
    </g>
   </g>
   <g id="text_23">
    <g clip-path="url(#p98632545d8)">
     <!-- E2 -->
     <g style="fill:#008000;" transform="translate(80.1422845714 254.262857143)rotate(-90.0)scale(0.07142400000000002 -0.07142400000000002)">
      <use xlink:href="#BitstreamVeraSans-Roman-45"/>
      <use x="63.18359375" xlink:href="#BitstreamVeraSans-Roman-32"/>
     </g>
    </g>
   </g>
   <g id="text_24">
    <g clip-path="url(#p98632545d8)">
     <!-- V101 -->
     <g style="fill:#a52a2a;" transform="translate(106.313142857 230.807427429)scale(0.07142400000000002 -0.07142400000000002)">
      <use xlink:href="#BitstreamVeraSans-Roman-56"/>
      <use x="68.408203125" xlink:href="#BitstreamVeraSans-Roman-31"/>
      <use x="132.03125" xlink:href="#BitstreamVeraSans-Roman-30"/>
      <use x="195.654296875" xlink:href="#BitstreamVeraSans-Roman-31"/>
     </g>
    </g>
   </g>
   <g id="text_25">
    <g clip-path="url(#p98632545d8)">
     <!-- VSOURCE -->
     <defs>
      <path d="M 8.6875 72.90625 
L 18.609375 72.90625 
L 18.609375 28.609375 
Q 18.609375 16.890625 22.84375 11.734375 
Q 27.09375 6.59375 36.625 6.59375 
Q 46.09375 6.59375 50.34375 11.734375 
Q 54.59375 16.890625 54.59375 28.609375 
L 54.59375 72.90625 
L 64.5 72.90625 
L 64.5 27.390625 
Q 64.5 13.140625 57.4375 5.859375 
Q 50.390625 -1.421875 36.625 -1.421875 
Q 22.796875 -1.421875 15.734375 5.859375 
Q 8.6875 13.140625 8.6875 27.390625 
z
" id="BitstreamVeraSans-Roman-55"/>
      <path d="M 39.40625 66.21875 
Q 28.65625 66.21875 22.328125 58.203125 
Q 16.015625 50.203125 16.015625 36.375 
Q 16.015625 22.609375 22.328125 14.59375 
Q 28.65625 6.59375 39.40625 6.59375 
Q 50.140625 6.59375 56.421875 14.59375 
Q 62.703125 22.609375 62.703125 36.375 
Q 62.703125 50.203125 56.421875 58.203125 
Q 50.140625 66.21875 39.40625 66.21875 
M 39.40625 74.21875 
Q 54.734375 74.21875 63.90625 63.9375 
Q 73.09375 53.65625 73.09375 36.375 
Q 73.09375 19.140625 63.90625 8.859375 
Q 54.734375 -1.421875 39.40625 -1.421875 
Q 24.03125 -1.421875 14.8125 8.828125 
Q 5.609375 19.09375 5.609375 36.375 
Q 5.609375 53.65625 14.8125 63.9375 
Q 24.03125 74.21875 39.40625 74.21875 
" id="BitstreamVeraSans-Roman-4f"/>
      <path d="M 53.515625 70.515625 
L 53.515625 60.890625 
Q 47.90625 63.578125 42.921875 64.890625 
Q 37.9375 66.21875 33.296875 66.21875 
Q 25.25 66.21875 20.875 63.09375 
Q 16.5 59.96875 16.5 54.203125 
Q 16.5 49.359375 19.40625 46.890625 
Q 22.3125 44.4375 30.421875 42.921875 
L 36.375 41.703125 
Q 47.40625 39.59375 52.65625 34.296875 
Q 57.90625 29 57.90625 20.125 
Q 57.90625 9.515625 50.796875 4.046875 
Q 43.703125 -1.421875 29.984375 -1.421875 
Q 24.8125 -1.421875 18.96875 -0.25 
Q 13.140625 0.921875 6.890625 3.21875 
L 6.890625 13.375 
Q 12.890625 10.015625 18.65625 8.296875 
Q 24.421875 6.59375 29.984375 6.59375 
Q 38.421875 6.59375 43.015625 9.90625 
Q 47.609375 13.234375 47.609375 19.390625 
Q 47.609375 24.75 44.3125 27.78125 
Q 41.015625 30.8125 33.5 32.328125 
L 27.484375 33.5 
Q 16.453125 35.6875 11.515625 40.375 
Q 6.59375 45.0625 6.59375 53.421875 
Q 6.59375 63.09375 13.40625 68.65625 
Q 20.21875 74.21875 32.171875 74.21875 
Q 37.3125 74.21875 42.625 73.28125 
Q 47.953125 72.359375 53.515625 70.515625 
" id="BitstreamVeraSans-Roman-53"/>
     </defs>
     <g style="fill:#a52a2a;" transform="translate(106.313142857 242.039427429)scale(0.07142400000000002 -0.07142400000000002)">
      <use xlink:href="#BitstreamVeraSans-Roman-56"/>
      <use x="68.408203125" xlink:href="#BitstreamVeraSans-Roman-53"/>
      <use x="131.884765625" xlink:href="#BitstreamVeraSans-Roman-4f"/>
      <use x="210.595703125" xlink:href="#BitstreamVeraSans-Roman-55"/>
      <use x="283.7890625" xlink:href="#BitstreamVeraSans-Roman-52"/>
      <use x="353.193359375" xlink:href="#BitstreamVeraSans-Roman-43"/>
      <use x="423.017578125" xlink:href="#BitstreamVeraSans-Roman-45"/>
     </g>
    </g>
   </g>
   <g id="text_26">
    <g clip-path="url(#p98632545d8)">
     <!-- 2 -->
     <g style="fill:#a52a2a;" transform="translate(323.913713143 192.772923429)rotate(-90.0)scale(0.07142400000000002 -0.07142400000000002)">
      <use xlink:href="#BitstreamVeraSans-Roman-32"/>
     </g>
    </g>
   </g>
   <g id="text_27">
    <g clip-path="url(#p98632545d8)">
     <!-- V- -->
     <g style="fill:#008000;" transform="translate(326.999427429 178.354285714)rotate(-90.0)scale(0.07142400000000002 -0.07142400000000002)">
      <use xlink:href="#BitstreamVeraSans-Roman-56"/>
      <use x="68.330078125" xlink:href="#BitstreamVeraSans-Roman-2d"/>
     </g>
    </g>
   </g>
   <g id="text_28">
    <g clip-path="url(#p98632545d8)">
     <!-- 5 -->
     <g style="fill:#a52a2a;" transform="translate(323.913713143 132.685714286)rotate(-90.0)scale(0.07142400000000002 -0.07142400000000002)">
      <use xlink:href="#BitstreamVeraSans-Roman-35"/>
     </g>
    </g>
   </g>
   <g id="text_29">
    <g clip-path="url(#p98632545d8)">
     <!-- V+ -->
     <g style="fill:#008000;" transform="translate(326.999427429 153.430956)rotate(-90.0)scale(0.07142400000000002 -0.07142400000000002)">
      <use xlink:href="#BitstreamVeraSans-Roman-56"/>
      <use x="68.408203125" xlink:href="#BitstreamVeraSans-Roman-2b"/>
     </g>
    </g>
   </g>
   <g id="text_30">
    <g clip-path="url(#p98632545d8)">
     <!-- 1 -->
     <g style="fill:#a52a2a;" transform="translate(365.142857143 159.342284571)scale(0.07142400000000002 -0.07142400000000002)">
      <use xlink:href="#BitstreamVeraSans-Roman-31"/>
     </g>
    </g>
   </g>
   <g id="text_31">
    <g clip-path="url(#p98632545d8)">
     <!-- 3 -->
     <g style="fill:#a52a2a;" transform="translate(305.055648 146.999427429)scale(0.07142400000000002 -0.07142400000000002)">
      <use xlink:href="#BitstreamVeraSans-Roman-33"/>
     </g>
    </g>
   </g>
   <g id="text_32">
    <g clip-path="url(#p98632545d8)">
     <!-- + -->
     <g style="fill:#008000;" transform="translate(313.302857143 150.085141714)scale(0.07142400000000002 -0.07142400000000002)">
      <use xlink:href="#BitstreamVeraSans-Roman-2b"/>
     </g>
    </g>
   </g>
   <g id="text_33">
    <g clip-path="url(#p98632545d8)">
     <!-- 4 -->
     <g style="fill:#a52a2a;" transform="translate(305.055648 171.685141714)scale(0.07142400000000002 -0.07142400000000002)">
      <use xlink:href="#BitstreamVeraSans-Roman-34"/>
     </g>
    </g>
   </g>
   <g id="text_34">
    <g clip-path="url(#p98632545d8)">
     <!-- - -->
     <g style="fill:#008000;" transform="translate(313.302857143 174.770856)scale(0.07142400000000002 -0.07142400000000002)">
      <use xlink:href="#BitstreamVeraSans-Roman-2d"/>
     </g>
    </g>
   </g>
   <g id="text_35">
    <g clip-path="url(#p98632545d8)">
     <!-- U101 -->
     <g style="fill:#a52a2a;" transform="translate(349.714285714 125.399427429)scale(0.07142400000000002 -0.07142400000000002)">
      <use xlink:href="#BitstreamVeraSans-Roman-55"/>
      <use x="73.193359375" xlink:href="#BitstreamVeraSans-Roman-31"/>
      <use x="136.81640625" xlink:href="#BitstreamVeraSans-Roman-30"/>
      <use x="200.439453125" xlink:href="#BitstreamVeraSans-Roman-31"/>
     </g>
    </g>
   </g>
   <g id="text_36">
    <g clip-path="url(#p98632545d8)">
     <!-- LMH6624 -->
     <defs>
      <path d="M 9.8125 72.90625 
L 24.515625 72.90625 
L 43.109375 23.296875 
L 61.8125 72.90625 
L 76.515625 72.90625 
L 76.515625 0 
L 66.890625 0 
L 66.890625 64.015625 
L 48.09375 14.015625 
L 38.1875 14.015625 
L 19.390625 64.015625 
L 19.390625 0 
L 9.8125 0 
z
" id="BitstreamVeraSans-Roman-4d"/>
      <path d="M 33.015625 40.375 
Q 26.375 40.375 22.484375 35.828125 
Q 18.609375 31.296875 18.609375 23.390625 
Q 18.609375 15.53125 22.484375 10.953125 
Q 26.375 6.390625 33.015625 6.390625 
Q 39.65625 6.390625 43.53125 10.953125 
Q 47.40625 15.53125 47.40625 23.390625 
Q 47.40625 31.296875 43.53125 35.828125 
Q 39.65625 40.375 33.015625 40.375 
M 52.59375 71.296875 
L 52.59375 62.3125 
Q 48.875 64.0625 45.09375 64.984375 
Q 41.3125 65.921875 37.59375 65.921875 
Q 27.828125 65.921875 22.671875 59.328125 
Q 17.53125 52.734375 16.796875 39.40625 
Q 19.671875 43.65625 24.015625 45.921875 
Q 28.375 48.1875 33.59375 48.1875 
Q 44.578125 48.1875 50.953125 41.515625 
Q 57.328125 34.859375 57.328125 23.390625 
Q 57.328125 12.15625 50.6875 5.359375 
Q 44.046875 -1.421875 33.015625 -1.421875 
Q 20.359375 -1.421875 13.671875 8.265625 
Q 6.984375 17.96875 6.984375 36.375 
Q 6.984375 53.65625 15.1875 63.9375 
Q 23.390625 74.21875 37.203125 74.21875 
Q 40.921875 74.21875 44.703125 73.484375 
Q 48.484375 72.75 52.59375 71.296875 
" id="BitstreamVeraSans-Roman-36"/>
      <path d="M 9.8125 72.90625 
L 19.671875 72.90625 
L 19.671875 43.015625 
L 55.515625 43.015625 
L 55.515625 72.90625 
L 65.375 72.90625 
L 65.375 0 
L 55.515625 0 
L 55.515625 34.71875 
L 19.671875 34.71875 
L 19.671875 0 
L 9.8125 0 
z
" id="BitstreamVeraSans-Roman-48"/>
      <path d="M 9.8125 72.90625 
L 19.671875 72.90625 
L 19.671875 8.296875 
L 55.171875 8.296875 
L 55.171875 0 
L 9.8125 0 
z
" id="BitstreamVeraSans-Roman-4c"/>
     </defs>
     <g style="fill:#a52a2a;" transform="translate(349.714285714 137.742284571)scale(0.07142400000000002 -0.07142400000000002)">
      <use xlink:href="#BitstreamVeraSans-Roman-4c"/>
      <use x="55.712890625" xlink:href="#BitstreamVeraSans-Roman-4d"/>
      <use x="141.9921875" xlink:href="#BitstreamVeraSans-Roman-48"/>
      <use x="217.1875" xlink:href="#BitstreamVeraSans-Roman-36"/>
      <use x="280.810546875" xlink:href="#BitstreamVeraSans-Roman-36"/>
      <use x="344.43359375" xlink:href="#BitstreamVeraSans-Roman-32"/>
      <use x="408.056640625" xlink:href="#BitstreamVeraSans-Roman-34"/>
     </g>
    </g>
   </g>
   <g id="text_37">
    <g clip-path="url(#p98632545d8)">
     <!-- VOUT -->
     <defs>
      <path d="M -0.296875 72.90625 
L 61.375 72.90625 
L 61.375 64.59375 
L 35.5 64.59375 
L 35.5 0 
L 25.59375 0 
L 25.59375 64.59375 
L -0.296875 64.59375 
z
" id="BitstreamVeraSans-Roman-54"/>
     </defs>
     <g style="fill:#a52a2a;" transform="translate(510.171428571 162.427998857)scale(0.07142400000000002 -0.07142400000000002)">
      <use xlink:href="#BitstreamVeraSans-Roman-56"/>
      <use x="68.392578125" xlink:href="#BitstreamVeraSans-Roman-4f"/>
      <use x="147.103515625" xlink:href="#BitstreamVeraSans-Roman-55"/>
      <use x="220.296875" xlink:href="#BitstreamVeraSans-Roman-54"/>
     </g>
    </g>
   </g>
   <g id="text_38">
    <g clip-path="url(#p98632545d8)">
     <!-- VIN -->
     <defs>
      <path d="M 9.8125 72.90625 
L 19.671875 72.90625 
L 19.671875 0 
L 9.8125 0 
z
" id="BitstreamVeraSans-Roman-49"/>
     </defs>
     <g transform="translate(78.1714285714 146.628889714)scale(0.07142400000000002 -0.07142400000000002)">
      <use xlink:href="#BitstreamVeraSans-Roman-56"/>
      <use x="68.408203125" xlink:href="#BitstreamVeraSans-Roman-49"/>
      <use x="97.900390625" xlink:href="#BitstreamVeraSans-Roman-4e"/>
     </g>
    </g>
   </g>
  </g>
 </g>
 <defs>
  <clipPath id="p98632545d8">
   <rect height="432.0" width="576.0" x="0.0" y="0.0"/>
  </clipPath>
 </defs>
</svg>
